<svg xmlns="http://www.w3.org/2000/svg" viewBox="0 0 99.81 102.62"><defs><style>.cls-1{fill:none;stroke:#000;stroke-miterlimit:10;}</style></defs><g id="Layer_2" data-name="Layer 2"><g id="design"><path d="M14,47.79c-8.79,0-14-11.22-14-23.93C0,11.34,5.11,0,14,0S28,11.21,28,23.86,22.8,47.79,14,47.79Zm0-46c-4.74,0-9.41,5.92-9.41,22.12C4.61,40.43,9.41,46,14,46c4.36,0,9.4-5.11,9.4-22.18S18.38,1.74,14,1.74Z"/><path d="M58.81,34.64c0,7.1-6.16,13.15-14.82,13.15-7.67,0-12.46-4.8-12.46-9.1,0-2,1-3.68,3-3.68a3.11,3.11,0,0,1,3,3.37c0,.68-.56,2.49-.56,3,0,1.56,2.24,4.3,6.66,4.3,5.55,0,10-4.43,10-11.28,0-6.42-3.8-11-10.1-11-.31,0-2,.19-2.36.19s-1.69,0-1.69-1.31c0-.93.75-1.12,1.62-1.12.31,0,2,.19,2.37.19a9.65,9.65,0,0,0,9.22-10.1c0-6-4.17-9.09-8.28-9.09-3.74,0-5.86,2.37-5.86,4.23,0,.32.19,1.87.19,2.25,0,1.43-.69,3.67-2.93,3.67-1.81,0-2.56-1.68-2.56-3.3,0-4.61,5.36-9,11.72-9,7,0,12.64,4.42,12.64,10.65,0,4.49-3.55,9.79-10.9,11.53C56.07,23.43,58.81,30.34,58.81,34.64Z"/><line class="cls-1" x1="99.44" y1="0.4" x2="5.59" y2="102.28"/></g></g></svg>