<svg xmlns="http://www.w3.org/2000/svg" viewBox="0 0 433.23 37.39"><defs><style>.cls-1{fill:#fff;}</style></defs><title>Asset 4</title><g id="Layer_2" data-name="Layer 2"><g id="Layer_1-2" data-name="Layer 1"><path class="cls-1" d="M27.56,17.72l2.2-2.84c.27-.36.44-.48.6-.48s.63.32.76.44l3.31,2.92c.24.24.48.4.48.68s-.32.48-.68.48H5a20.1,20.1,0,0,0-4.32.28L0,17.48c1.88.16,3.76.24,5.68.24Z"/><path class="cls-1" d="M53.24,21.16c-1.28,0-1.44-.88-1.56-1.76a13.58,13.58,0,0,0-.48-1.92,17.31,17.31,0,0,1-1.92.64c0,9.08,0,11,.08,12.59,0,.6.12,3.24.12,3.8,0,.8,0,2-2.08,2-1.32,0-1.32-.8-1.32-1.24s.08-2.92.08-3.4v-8l-1,.52a23,23,0,0,1-4.72,9.39l-.36-.2A46.92,46.92,0,0,0,42.16,23.4a9.44,9.44,0,0,0-.28-1.84l3.84,1.2c.08,0,.36.12.44.16V19c-2.88.68-3.2.72-4.48,1-.08.6-.44,1.12-.84,1.12s-.56-.28-.8-1l-1.24-3.8c1.48.48,1.92.6,5.84.64.6-.84,3.12-4.64,3.6-5.44A15.17,15.17,0,0,0,50.52,6L54,8.28c.64.4.72.44.72.76,0,.8-1.12.8-1.68.76a49.74,49.74,0,0,1-7,7.12c2.44,0,2.68,0,4.84-.2a7.6,7.6,0,0,0-1.24-2.24l.2-.28c3.12,1.12,5.24,3.12,5.24,5a1.86,1.86,0,0,1-1.88,1.92m-4-16.84A36,36,0,0,1,45.36,8.2c2,1.48,2,2.68,2,3.08a1.74,1.74,0,0,1-1.88,1.8c-1.08,0-1.24-.44-1.92-2C42.28,8.24,41.8,7.68,41,6.76l.16-.28a9.82,9.82,0,0,1,3.36,1.16c2.16-5,2.12-6.16,2.12-7l3.6,2a1,1,0,0,1,.6.8c0,.56-.52.68-1.52.92m3.88,26.31c-1.56,0-1.76-1.47-1.92-2.84a10.68,10.68,0,0,0-1.32-4.31l.24-.2c3.64,1.44,4.88,4,4.88,5.31a2,2,0,0,1-1.88,2M75.31,14.12H65.44a60.18,60.18,0,0,1-5,5.08l.36.16h6.68l1.2-1.08a1.33,1.33,0,0,1,.84-.36,1.56,1.56,0,0,1,.83.4l1.44,1.08a1.34,1.34,0,0,1,.6,1c0,.4-.92,1.24-1.32,1.64,0,1.44,0,2.68,0,4.6,0,1,.32,7,.32,7.43a2.46,2.46,0,0,1-2.24,2.36c-1.51,0-1.47-1.28-1.43-2.6h-7c0,1,0,2.36-2.08,2.36-1,0-1.44-.44-1.44-1.2,0-.12,0-.44,0-.64.16-2.52.24-6.95.24-9.59,0-2,0-2.32,0-3.16a19.59,19.59,0,0,1-4.92,2.64L52.24,24a40.21,40.21,0,0,0,5-4.4,11.15,11.15,0,0,0-.28-2l1.56.76c1.44-1.56,2.68-3,3.6-4.16H57.76a20.1,20.1,0,0,0-4.32.28l-.64-1.48c2.36.2,5,.24,5.84.24,0-1.28.08-5,.08-5.64a21,21,0,0,0-4.16.28l-.64-1.48c1.8.16,2.88.2,4.8.24,0-3.68,0-4-.52-6.4l4.08.92c.36.08,1,.2,1,.76s-.48.88-1.4,1.52v3.2h1L64,5.36c.2-.2.4-.48.64-.48a1.45,1.45,0,0,1,.72.4l1.32,1.2A1.3,1.3,0,0,1,67,7c1.67-3,2.08-3.88,2.23-5.92L73,3.68c.48.32.64.56.64.92s-.24.64-1.56.88c-3.07,4.4-5.55,7.32-5.83,7.68h4.19l1.48-1.92c.28-.4.4-.48.64-.48a1.2,1.2,0,0,1,.72.4l2.24,1.92c.2.2.4.36.4.6s-.32.44-.6.44m-7.59,6.2H60.64v5.6h7.08Zm0,6.55H60.64v6h7.08ZM66.44,7.52h-4.6v5.64h1a60.16,60.16,0,0,0,3.92-5.68.88.88,0,0,1-.32,0"/><path class="cls-1" d="M89.6,24.43a34.09,34.09,0,0,0-.8,5.24c0,.44.24,2.32.24,2.72,0,1.24-.16,2-1.28,2-2.36,0-4.6-4.84-4.6-11.83,0-2.56.36-5.84,1.6-12.44A18.71,18.71,0,0,0,85,7.48a5.6,5.6,0,0,0-1.56-3.84,1.89,1.89,0,0,1,1-.32C86,3.32,89,5.76,89,7.24a5.7,5.7,0,0,1-.56,2c-1.68,3.8-3.08,7-3.08,11.68,0,2.56.68,5.72,1.4,5.72.28,0,.48-.49.6-.8a82,82,0,0,1,3.52-8.52h.28c-.2,1.12-1.32,6.11-1.52,7.11M108.75,31c-9.63,0-13.51-1.72-13.51-6.76a3,3,0,0,1,.56-2.07c.68,2.84,1.32,5.4,8.72,5.4.84,0,4.55-.29,5.31-.29,2.84,0,3.36,1.36,3.36,2,0,1.72-2.2,1.72-4.44,1.72m0-20.95a19.74,19.74,0,0,0-7.87,2.88l-.28-.24c.52-.6,3.44-3.28,3.44-3.6,0-.56-1.28-.56-1.6-.56-2.44,0-6,1.44-7,1.84,1.36-3.2,7-4.4,10.79-4.4,1.76,0,5,.56,5,2.4,0,.84-.52,1.36-2.52,1.68"/><path class="cls-1" d="M118,18.8c3.56-4.6,7.48-16.4,7.72-18.4l3.92,2A.66.66,0,0,1,130,3a.8.8,0,0,1-.48.6c-.12,0-.64.28-.92.36a42.74,42.74,0,0,1-2.28,4.64c.56.36.92.68.92.84s-.36.6-1.24,1.4c0,2.44-.12,13.08-.12,15.23,0,1.12,0,2.84,0,5.12,0,.48.08,2.56.08,3,0,.76,0,2.56-2.36,2.56-1,0-1.32-.36-1.32-1.44s.12-3,.2-4.16c.24-4.68.28-6,.4-17.27-.8,1-3,3.88-4.8,5.08Zm15.32-6V9.44h-1.24a22.32,22.32,0,0,0-4.12.24l-.64-1.44c2.08.16,3,.24,6,.24V5.68a21.87,21.87,0,0,1-5.36.4V5.84c4.84-1.24,9.92-3.4,11.84-5.48L142.48,3a.75.75,0,0,1,.2.44c0,.52-.48.52-1.56.52l-.8.2c-2.12.56-3.44.84-4.36,1V8.48h2.36l1.48-1.84c.2-.24.4-.52.64-.52a1.67,1.67,0,0,1,.72.44L143,8.4c.24.24.4.36.4.6,0,.4-.44.44-.64.44H136V12.8h2.44L139,12c.12-.16.44-.52.64-.52a1.71,1.71,0,0,1,.8.36l1.8,1c.2.12.4.24.4.48a.9.9,0,0,1-.28.68c-.12.12-.72.8-.88,1,0,.88,0,2.4,0,3.2,0,.64.08,3.64.08,3.88a1.7,1.7,0,0,1-2,1.76c-1,0-1-.76-1-1.32H136v3.75h1.4l1.32-1.67c.28-.36.44-.48.64-.48a1.43,1.43,0,0,1,.72.39l1.68,1.68c.2.2.4.41.4.61,0,.43-.4.43-.6.43H136v2.64a32.9,32.9,0,0,0,5.72-1.12l0,.32c-3.28,1.84-8.08,3.24-12.28,4.48-.32.6-.48.84-.84.84s-.44-.28-.52-.48l-1.16-3.76a12.38,12.38,0,0,0,1.8.2c.68,0,3-.12,4.6-.24V27.15h-.76a18.85,18.85,0,0,0-4.32.28L127.56,26c2.64.24,5.56.24,5.76.24V22.44h-2.56c-.08.8-.16,1.72-1.68,1.72-1,0-1.16-.6-1.16-1.12,0-1.12.16-6.52.16-7.76a10.37,10.37,0,0,0-.44-4L131,12.8ZM130.76,17h2.56V13.76h-2.56Zm0,4.44h2.56V18h-2.56Zm7.84-7.72H136V17h2.64Zm0,4.24H136v3.48h2.64Zm-2.52,17.91c5.16-4,8.56-8.52,8.87-24.55a16.16,16.16,0,0,0-3.11.48l-.76-1.44c1.64,0,2.48,0,3.87-.08.08-3.16-.07-6.48-.15-7.44a19.61,19.61,0,0,0-.52-2.24l4.19,1.12c.28.08.6.2.6.48s-.24.44-.4.64-.28.32-.48.56c0,1.4,0,3.28,0,6.68L150,10l.84-1c.16-.16.44-.52.68-.52a1.5,1.5,0,0,1,.64.28l1.84,1.4a.91.91,0,0,1,.44.68c0,.32-.36.68-1,1.28-.12,8.32-.32,15.63-1.08,19-.6,2.56-1.6,4.88-5.84,5.52A7.77,7.77,0,0,0,143,32.15l0-.32a14.11,14.11,0,0,0,3.31.44c1.8,0,2.84-.16,3.48-3.8s.64-12.67.64-16.91v-.64l-2.28.16c-.2,9.24-.52,20.43-11.91,25.07Z"/><path class="cls-1" d="M183,36.75c-.88,0-1.16-.48-3.76-4.52-1.56-2.4-2.6-3.44-9.88-10.63a4.82,4.82,0,0,1-1.64-3.16c0-.64.12-1.4,1.6-2.92,6.4-6.72,7-7.36,9.36-10.76a2.2,2.2,0,0,0,.52-1.2c0-.28-.2-1.4-2.28-3a2.33,2.33,0,0,1,.76-.12c3.68,0,5.56,3.12,5.56,4.28s-.72,1.6-1.52,2.2a136.73,136.73,0,0,0-11,10,2.07,2.07,0,0,0-.64,1.36c0,1,.4,1.36,3,3.52,7.16,6.11,9.88,8.39,11,10.19a4.06,4.06,0,0,1,.6,2.08c0,1.28-.6,2.6-1.64,2.6"/><path class="cls-1" d="M211.24,5.32c-1.48,2.64-2.16,3.84-3,5.24l1.48.76c.48.24.52.28.52.52s-.12.44-1.32,1.24c0,1.12-.08,3,0,5.64,0,2.32.24,14.23.24,14.63,0,1.92,0,3.12-2.52,3.12a1.17,1.17,0,0,1-1.28-1.32c0-.12.16-1.48.16-1.64.32-3.16.24-7.2.24-8.83,0-.41,0-8.36,0-10a30.59,30.59,0,0,1-6.76,7.36l-.24-.2A93.8,93.8,0,0,0,206.4,7.16a18.78,18.78,0,0,0,1.84-6l4.12,2.4c.56.32.64.4.64.68,0,.48-.16.56-1.76,1.12m22.35,5.88c0,1.56,0,8.44.12,9.84,0,.36.16,2,.16,2.35,0,1.68-1.84,1.92-2.24,1.92-1.32,0-1.32-.88-1.28-1.88H225c0,.61.16,10.52.16,11.16a2.21,2.21,0,0,1-2.48,2.4,1.5,1.5,0,0,1-1.52-1.68c0-.32.12-1.84.12-2.16.16-3.64.2-5.8.28-9.72h-5.36c0,1.45,0,3-2,3-.8,0-1.32-.4-1.32-1.51,0-.28,0-.61,0-.8.08-1.72.12-5,.12-6.8a77.35,77.35,0,0,0-.4-10.4l4.08,2.24h5a33.66,33.66,0,0,0-.8-8.52l4.51,1.32c.73.2.84.24.84.6s-.36.64-1.27,1.24a51.9,51.9,0,0,0-.21,5.36h5L231,7.88c.4-.44.52-.56.76-.56a1.06,1.06,0,0,1,.56.28l2,1.56c.32.24.52.4.52.68s-.12.4-1.24,1.36m-17.43-1.12V22.47h5.36c.08-4.79.12-5.55.16-12.39Zm14.23,0h-5.64c.08,6.4.12,7.12.21,12.39h5.43Z"/><path class="cls-1" d="M256.72,3.6a.65.65,0,0,1,.24.6c0,.44-1.2,1.24-1.4,1.4,0,1.24.16,7.32.16,8.72,0,1.16-1.48,1.6-2.36,1.6a1,1,0,0,1-1-1.08,3.94,3.94,0,0,1,.08-.68h-6.56c0,3.84,0,8.28,0,11.52,0,1.88,0,6.39.16,8.11,0,.44,0,.72,0,.84,0,1.56-2,1.8-2.4,1.8-1.2,0-1.2-.84-1.2-1.12,0-.68.24-4,.28-4.72.12-3.87.12-6,.12-25.31a18.3,18.3,0,0,0-.44-4.2l4.12,2h5.36L253.24,2a1.13,1.13,0,0,1,.68-.36,1.09,1.09,0,0,1,.48.24ZM245.84,7.92h6.6V4h-6.6Zm0,5.28h6.6V8.88h-6.6Zm14.88,5.52.76-1.08c.2-.32.36-.52.76-.52.24,0,.55.28.71.4l1.56,1.32c.28.24.36.32.36.52s-.24.48-1.16,1.36c0,2.52,0,5.27.12,7.07,0,.32.16,1.76.16,2,0,1.6-1.47,1.88-2.55,1.88-.6,0-.8-.28-.8-.92,0-.24.08-.84.08-1.08h-7.28a10,10,0,0,1,.08,1c0,1.6-2.08,1.6-2.2,1.6a1,1,0,0,1-1.08-1.2c0-1,.32-7.87.32-9.35a34.27,34.27,0,0,0-.32-4.56l3.24,1.52Zm-7.28,4.88h7.32V19.68h-7.32Zm0,5.15h7.32V24.56h-7.32ZM269,3l1.12-1c.36-.36.56-.48.88-.48a.93.93,0,0,1,.6.28l2.08,1.8a1,1,0,0,1,.36.64c0,.2-.2.44-.56.72l-1,.8c0,2.48.12,26.27,0,27.35s-.68,2.84-5,4c-.44-1.88-1.31-3.6-4.39-4.92l.12-.28c2.67.24,4.23.28,4.59.28,1.64,0,1.64-.52,1.64-1.52V14.16h-6.71c.11,1.52-1.72,1.76-2.2,1.76a1,1,0,0,1-1.16-1.2c0-.44.2-8.24.2-9.8a22,22,0,0,0-.24-3.76L263.2,3Zm-6.35,4.88h6.75V4h-6.75Zm0,5.28h6.75V8.88h-6.75Z"/><path class="cls-1" d="M309.75,17.76a45.13,45.13,0,0,0-10.63,3.32,26.65,26.65,0,0,1,.32,4.36c0,1.28,0,3.71-1.56,3.71-1.76,0-1.8-2.55-1.8-4.27,0-1.56,0-1.72,0-2.24-1.8,1.12-5.44,3.84-5.44,6.07,0,3,5.2,3,6.36,3a35.77,35.77,0,0,0,6.16-.64,9.52,9.52,0,0,1,1.44-.12c2,0,2.47,1.32,2.47,2a1.7,1.7,0,0,1-1.35,1.56,53.47,53.47,0,0,1-6.08.4c-2.56,0-10.84-.16-10.84-5.12,0-3.92,5.12-7.51,7.12-8.83-.28-2.12-.72-4.16-3.2-4.16s-4,2.28-4.84,3.68c-1.64,3-2.16,3.2-2.84,3.2-1,0-1.36-.48-1.36-1.76a4.05,4.05,0,0,1,.84-2.8,30.44,30.44,0,0,0,6.76-8.48,22.15,22.15,0,0,1-3,.28C284.48,11,284,8.28,284,7.72a2.27,2.27,0,0,1,.12-.72,5.14,5.14,0,0,0,4.24,1.64,31.66,31.66,0,0,0,4.32-.44c.44-.8,2.12-3.72,2.12-4.32s-1.48-1.56-3-1.56a4.26,4.26,0,0,1,3-1.36c1.88,0,3.88,1.6,3.88,2.56A2.22,2.22,0,0,1,298,5a16.25,16.25,0,0,0-2,2.48c1.52-.56,4.2-1.52,4.56-1.64a2.57,2.57,0,0,1,.88-.16c1,0,2.12.6,2.12,1.56,0,.72-.56,1.08-1.2,1.28A46.5,46.5,0,0,1,294,10.32c-.64.88-3.56,4.84-4,5.52-.12.2-.28.52-.32.6a14.36,14.36,0,0,1,4.48-.84,4.48,4.48,0,0,1,4.56,3.6c1-.6,3.48-2,7-3.76,1-.48,1.16-.84,1.16-1.32s-.24-.76-1.36-1.44a3,3,0,0,1,1-.2c2.08,0,5.15,1.44,5.15,3.68,0,1-.4,1.24-2,1.6"/><path class="cls-1" d="M324.56,30.76c0,1.11,0,1.75-.68,1.75a1.47,1.47,0,0,1-1-.52l-3.44-4c1.24,0,2.24,0,5.52-1.84a71.5,71.5,0,0,0,9-6.27l.32.28a73.71,73.71,0,0,1-9.8,10.64M352,33.67c-8-4.84-11.75-14.87-13.15-20.15,0,2.52,0,2.8,0,5.32,0,2.08.36,13,.36,13.07,0,1.48-.08,2.64-1,3.52a7.34,7.34,0,0,1-4.6,2,6.33,6.33,0,0,0-3.8-4.72v-.44l4.6.32c.24,0,.88,0,1-.16a22.14,22.14,0,0,0,.24-4.16c0-1.19,0-5.19-.16-9.59,0-.88-.2-7.48-.24-8.92h-10.4a22.51,22.51,0,0,0-4.32.28L320,8.52a54,54,0,0,0,5.68.24h9.68c-.12-5.08-.16-6.56-1.16-8.76l5.08,1.76c.4.12.68.36.68.76,0,.64-.76,1-1.2,1.2,0,.68,0,3.36,0,5h9.95l1.52-2.24c.17-.2.44-.52.64-.52a1.36,1.36,0,0,1,.72.44l2.64,2.28c.2.16.4.32.4.6s-.4.4-.6.4H338.84a31.48,31.48,0,0,0,3.48,9.36c3.76-4.6,4.15-5.08,4.79-7.24l3.64,3c.12.12.52.48.52.84s-.16.44-1.68.68c-2.27,1.16-5.43,2.76-6.87,3.44a20.91,20.91,0,0,0,13.63,10v.39c-.88.12-2.48.4-4.36,3.52M329.68,20.36c-1.2,0-1.52-.64-2.36-2.32a14.07,14.07,0,0,0-3.36-4.8l.12-.24c5.52.64,7.52,3.32,7.52,5.2a2,2,0,0,1-1.92,2.16M345.6,8.28c-1.28,0-1.93-1.16-2.44-2.16C342,4,341.88,3.76,340.52,2.68l.16-.32c5.31.84,6.72,2.08,6.72,3.84a1.94,1.94,0,0,1-1.8,2.08"/><path class="cls-1" d="M375.6,33.71c7-1.6,14.11-6.15,14.11-13.43,0-5.52-4.67-8.32-9.55-8.4-2,4.36-4.28,9.2-6.76,12.32,1.92,2.12,2.56,2.83,2.56,4a1.34,1.34,0,0,1-1.32,1.51c-1.48,0-2.84-2.08-3.32-2.84-.6.69-3.76,4.32-6.08,4.32a2.13,2.13,0,0,1-1.6-.6,32.85,32.85,0,0,1-1.4-3.11,4,4,0,0,1-.8-2.12,15.63,15.63,0,0,1,1.44-4.88,14.26,14.26,0,0,1,3.92-4.88C365.2,9.64,365,9,363.56,6.72c1.32,0,3.52,1.12,4.56,4.24.28.88.6,2,.84,3a22,22,0,0,1,8.48-3.16,20.46,20.46,0,0,0,1.2-4.76c0-1-.24-1.24-2.48-3.12a3.32,3.32,0,0,1,1.64-.36c2.6,0,5,1.56,5,3.32A5.75,5.75,0,0,1,382,8.16c-.88,1.64-.88,1.68-1.24,2.4,5.95,0,12.63,2.8,12.63,10.36,0,8-7.39,13.35-17.79,13Zm-8.24-16.07c-1.08,1.24-3.48,4.28-3.48,7.88,0,.68,0,2.72,1.56,2.72s4.24-3.32,4.56-3.76a34.22,34.22,0,0,1-2.64-6.84m2-2A22.81,22.81,0,0,0,371.8,22,52.1,52.1,0,0,0,377,12.12a16.06,16.06,0,0,0-7.56,3.52"/><path class="cls-1" d="M430.39,8.24a29.08,29.08,0,0,0-7.15.6c-4.2,1.28-8.68,6.52-8.68,12.44,0,1.92.84,6,6.32,7.63.88.25,4.79,1,5.47,1.4a2.39,2.39,0,0,1,1.36,2c0,1.56-1.28,1.56-2,1.56a19.89,19.89,0,0,1-7-2,10.13,10.13,0,0,1-6.16-9.75c0-6.16,3.68-10,8.08-13.72-2.12-.2-9.4,2.68-13,4.28-2,.92-2.2,1-2.8,1a3.68,3.68,0,0,1-3.12-3.8,3.66,3.66,0,0,1,.88-2.52c.84,1.8,1.8,2.36,3.16,2.36s19.79-4.44,20.67-4.72a10.45,10.45,0,0,1,3.12-.8c1.88,0,3.72,1.2,3.72,2.44,0,1.48-1.2,1.48-2.84,1.48"/></g></g></svg>