<svg xmlns="http://www.w3.org/2000/svg" viewBox="0 0 300 60.09"><defs><style>.cls-1{fill:#e68f12;}.cls-2{fill:#f3e967;}.cls-3{fill:#231815;}</style></defs><g id="Layer_2" data-name="Layer 2"><g id="design"><path class="cls-1" d="M49.68,25.25V3.35A3.34,3.34,0,0,0,46.33,0h-43A3.29,3.29,0,0,0,0,3.35V46.43a3.34,3.34,0,0,0,3.35,3.34h8.23L9.68,45A14.93,14.93,0,0,1,37.47,34l6.15,15.74h2.81a3.33,3.33,0,0,0,3.34-3.34V31.76A3.38,3.38,0,0,1,47,28.51,3.22,3.22,0,0,1,49.68,25.25ZM12.49,22.9a8.18,8.18,0,0,1-7.87-8.69A8.29,8.29,0,1,1,21.18,15,8.42,8.42,0,0,1,12.49,22.9Z"/><path class="cls-2" d="M13.21,6.33a8.43,8.43,0,0,0-8.69,7.88A8.43,8.43,0,0,0,12.4,22.9,8.43,8.43,0,0,0,21.09,15,8.31,8.31,0,0,0,13.21,6.33Z"/><path d="M.09,55.66H2.71a1.16,1.16,0,0,1,.55.09,1.28,1.28,0,0,1,.54.18c.18.09.27.27.36.36a1.14,1.14,0,0,1,.09.54,1,1,0,0,1-.36.82,1.62,1.62,0,0,1-.81.36L4,59v.09l.18.19c.09,0,.09.09.18.09h.37V60H3.35L2,58.19H1.63v1.09a.09.09,0,0,0,.09.09h.36V60h-2v-.63H.45l.09-.09v-2.9a.09.09,0,0,0-.09-.09H.09Zm1.54.72v1.09h.63c.27,0,.45,0,.55-.09s.18-.09.27-.19a.45.45,0,0,0,0-.54c-.09-.09-.18-.18-.27-.18a3.58,3.58,0,0,0-.55-.09Z"/><path d="M5.25,55.66H7.33v.63H7l-.09.09v2.9a.09.09,0,0,0,.09.09h.36V60H5.25v-.63H5.7a.09.09,0,0,0,.09-.09V56.47l-.09-.09H5.25Z"/><path d="M11.13,55.66l.36,1.44-.54.19c-.18-.37-.36-.64-.63-.73a1.22,1.22,0,0,0-.73-.27.81.81,0,0,0-.45.09c-.09.09-.18.18-.18.27s.09.18.18.27a2,2,0,0,0,.45.27l.82.28a1.52,1.52,0,0,1,1,.54,1,1,0,0,1,.27.72,1.11,1.11,0,0,1-.45.91,2,2,0,0,1-1.27.45A1.53,1.53,0,0,1,9.32,60a4.39,4.39,0,0,0-.63-.27L8.6,60H8.14l-.27-1.63.55-.18a1.44,1.44,0,0,0,.63.81,1.26,1.26,0,0,0,.9.37c.19,0,.28,0,.37-.09s.18-.09.27-.18a.31.31,0,0,0,.09-.19.68.68,0,0,0-.18-.36,2.11,2.11,0,0,0-.64-.27l-.72-.18a1.52,1.52,0,0,1-.45-.18,2,2,0,0,1-.45-.27A1.1,1.1,0,0,1,8,57.29a.86.86,0,0,1-.09-.46,1.3,1.3,0,0,1,.18-.63.94.94,0,0,1,.55-.45,2.63,2.63,0,0,1,.81-.18,1.85,1.85,0,0,1,1,.27l.09-.18Z"/><path d="M12.13,55.66h2.08v.63h-.36l-.09.09v2.9a.09.09,0,0,0,.09.09h.36V60H12.13v-.63h.45a.09.09,0,0,0,.09-.09V56.47l-.09-.09h-.36v-.72Z"/><path d="M14.84,55.66h1.72l1.27,2.53V56.38a.09.09,0,0,0-.09-.09h-.36v-.63H19.1v.63h-.37l-.09.09v3.53h-.9l-1.63-3.17v2.45a.09.09,0,0,0,.09.09h.36v.63H14.84v-.63h.36l.09-.09V56.38l-.09-.09h-.45v-.63Z"/><path d="M22.08,57.65h2.08v.63H23.8l-.09.09V60h-.63l-.18-.27a5.15,5.15,0,0,1-.64.27,1.53,1.53,0,0,1-.63.09,2.47,2.47,0,0,1-1.09-.27,1.57,1.57,0,0,1-.72-.82,2.49,2.49,0,0,1-.27-1.17,2,2,0,0,1,.27-1.09,1.77,1.77,0,0,1,.81-.81,2.47,2.47,0,0,1,1.09-.27,1.14,1.14,0,0,1,.54.09c.18.09.36.09.45.18l.1-.18h.45l.36,1.44-.54.19a5.27,5.27,0,0,0-.46-.64c-.09-.09-.27-.18-.36-.27a.81.81,0,0,0-.45-.09,1.28,1.28,0,0,0-.54.18.9.9,0,0,0-.36.45,1.71,1.71,0,0,0-.19.82,2.44,2.44,0,0,0,.19.9.94.94,0,0,0,.45.55,1.28,1.28,0,0,0,.54.18.81.81,0,0,0,.45-.09c.09-.09.18-.09.27-.18a.36.36,0,0,0,.09-.28v-.36l-.09-.09h-.45v-.81Z"/><path d="M26.43,55.66h2.08v.63h-.37l-.09.09v1.81c0,.27,0,.54.09.63a1.77,1.77,0,0,0,.28.37,1.17,1.17,0,0,0,.9,0l.27-.28c.09-.09.09-.36.09-.63v-1.9l-.09-.09h-.36v-.63H31v.63h-.45a.09.09,0,0,0-.09.09v2a2.58,2.58,0,0,1-.09.82,1.08,1.08,0,0,1-.64.63,2.28,2.28,0,0,1-1.72.18,1.88,1.88,0,0,1-.54-.36,1.58,1.58,0,0,1-.36-.45,1.83,1.83,0,0,1-.09-.73v-1.9a.09.09,0,0,0-.09-.09h-.36v-.81Z"/><path d="M31.4,55.66H34a1.14,1.14,0,0,1,.54.09,1.28,1.28,0,0,1,.54.18c.18.09.27.27.37.36a1.14,1.14,0,0,1,.09.54,1,1,0,0,1-.37.82,1.1,1.1,0,0,1-.81.36l.9,1v.09l.19.19c.09,0,.09.09.18.09H36V60H34.66L33.3,58.19h-.36v1.09a.09.09,0,0,0,.09.09h.45V60H31.4v-.63h.36l.1-.09v-2.9a.09.09,0,0,0-.1-.09h-.45v-.63Zm1.54.72v1.09h.63c.28,0,.46,0,.55-.09s.18-.09.27-.19a.45.45,0,0,0,0-.54c-.09-.09-.18-.18-.27-.18a3.17,3.17,0,0,0-.55-.09Z"/><path d="M36.2,55.66h2v.63h-.36a.09.09,0,0,0-.09.09v.09a.7.7,0,0,0,.09.27l.72,2.08.82-2.17a.31.31,0,0,1,.09-.18c0-.09,0-.09-.09-.09H39v-.63h1.63v.63c-.18,0-.27,0-.27.09a.47.47,0,0,0-.18.36L38.91,60h-1l-1.27-3.35a.33.33,0,0,1-.09-.27l-.09-.09H36.2Z"/><path d="M42.26,55.66h1l1.26,3.25c.1.18.1.28.19.37a.33.33,0,0,0,.27.09V60H43v-.63h.36l.09-.09a.76.76,0,0,0-.09-.28l-.09-.36H42l-.18.45a.32.32,0,0,1-.09.19v.09l.09.09h.27v.63H40.45v-.63h.27a.09.09,0,0,0,.09-.09.31.31,0,0,0,.09-.18ZM42.08,58h.82l-.37-1.18Z"/><path d="M48.6,55.66,49,57.1l-.54.19a1.28,1.28,0,0,0-.64-.73,1.2,1.2,0,0,0-.72-.27.81.81,0,0,0-.45.09c-.09.09-.18.18-.18.27s.09.18.18.27a2,2,0,0,0,.45.27l.81.28a1.52,1.52,0,0,1,1,.54,1,1,0,0,1,.27.72,1.11,1.11,0,0,1-.45.91,2,2,0,0,1-1.27.45,1.53,1.53,0,0,1-.63-.09,4.1,4.1,0,0,0-.64-.27l-.09.27h-.45l-.27-1.63.54-.18a1.41,1.41,0,0,0,.64.81,1.26,1.26,0,0,0,.9.37c.18,0,.27,0,.36-.09s.18-.09.27-.18a.31.31,0,0,0,.09-.19.68.68,0,0,0-.18-.36,2.15,2.15,0,0,0-.63-.27l-.72-.18a1.55,1.55,0,0,1-.46-.18,2,2,0,0,1-.45-.27,1.24,1.24,0,0,1-.27-.36.86.86,0,0,1-.09-.46,1.3,1.3,0,0,1,.18-.63.92.92,0,0,1,.54-.45,2.69,2.69,0,0,1,.82-.18,1.81,1.81,0,0,1,1,.27l.09-.18Z"/><path class="cls-3" d="M81.18,37.29a12.58,12.58,0,0,1-3.35-4.17v5.07a.09.09,0,0,1-.09.09H76.38a.09.09,0,0,1-.09-.09V33.12a17.67,17.67,0,0,1-4,4.17c-.09,0-.09,0-.18-.1l-.64-1.26v-.18A12.65,12.65,0,0,0,75.84,31H72.76l.18.54c.09.18.09.37.18.37v.18l-1,.81c-.09.09-.18,0-.18-.09-.28-.9-.64-1.72-.91-2.62V38.1a.09.09,0,0,1-.09.09H69.59a.09.09,0,0,1-.09-.09V31.31a18.16,18.16,0,0,1-1.17,3.17.18.18,0,0,1-.28,0L67.33,33v-.09a21.5,21.5,0,0,0,1.9-5.79H67.78a.09.09,0,0,1-.09-.09V25.79a.09.09,0,0,1,.09-.09H69.5V23a.09.09,0,0,1,.09-.09H71A.09.09,0,0,1,71,23V25.7h1.54a.09.09,0,0,1,.09.09v.91a17.34,17.34,0,0,0,1-3.62.09.09,0,0,1,.09-.09l1.26.18c.09,0,.09.09.09.18-.09.54-.18,1.08-.27,1.45H76.2V22.9a.09.09,0,0,1,.09-.09h1.36a.09.09,0,0,1,.09.09v1.9h3.44a.09.09,0,0,1,.09.09v1.35a.09.09,0,0,1-.09.09H77.83V29.5h3.8a.09.09,0,0,1,.09.09V31a.09.09,0,0,1-.09.09H78.28a12,12,0,0,0,3.62,4.71c.09,0,.09.09.09.18l-.54,1.36C81.36,37.29,81.27,37.38,81.18,37.29Zm-6.79-11A11.09,11.09,0,0,1,73.3,29c0,.09-.09.09-.18,0L72,28.33c-.09,0-.09-.09-.09-.19l.45-.9H71.13c.18.45.54,1.27,1,2.26H76.2V26.33Z"/><path class="cls-3" d="M97,33.67A8.81,8.81,0,0,1,96.29,37c-.36.73-.81,1.09-1.27,1.09a1.29,1.29,0,0,1-.9-.36,4.56,4.56,0,0,1-1-1.18,9,9,0,0,1-.9-2.08,17.68,17.68,0,0,1-.73-3.26A33.39,33.39,0,0,1,91,26.7h-8a.09.09,0,0,1-.09-.09V25.34a.09.09,0,0,1,.09-.09H91V22.81a.09.09,0,0,1,.09-.1H92.4c.09,0,.09.1.09.1a21.4,21.4,0,0,0,.09,2.44h2.53c-.72-.54-1.44-1-2.08-1.45-.09,0-.09-.09,0-.18l.64-1.09c.09-.09.09-.09.18,0a17.59,17.59,0,0,1,2.44,1.72c.09,0,.09.09,0,.18l-.54.91h.9a.09.09,0,0,1,.09.09V26.7a.09.09,0,0,1-.09.09h-4c.09,1.26.18,2.44.36,3.53a25.88,25.88,0,0,0,.54,2.62,14.18,14.18,0,0,0,.55,1.72,3.3,3.3,0,0,0,.54,1c.18.18.27.36.36.36.27,0,.55-.91.73-2.81,0-.09.09-.18.18-.09l1.26.45C97,33.57,97,33.57,97,33.67ZM91.22,36a39.39,39.39,0,0,1-7.69,1.72c-.09,0-.09,0-.09-.09l-.18-1.36c0-.09,0-.09.09-.18.81-.09,1.72-.27,2.89-.45V30.23H83.8a.09.09,0,0,1-.09-.09V28.87a.09.09,0,0,1,.09-.09h6.61a.09.09,0,0,1,.09.09v1.27a.09.09,0,0,1-.09.09H87.87v5.06c1.18-.27,2.27-.54,3.08-.81.09,0,.18,0,.18.09l.18,1.27C91.31,35.93,91.31,35.93,91.22,36Z"/><path class="cls-3" d="M111.22,29.14c-.81-.45-1.54-1-2.08-1.36V29a.09.09,0,0,1-.09.09h-8.51a.09.09,0,0,1-.09-.09V27.78c-.54.36-1.26.91-2.08,1.36-.09.09-.09,0-.18-.09l-.63-1.27c0-.09,0-.09.09-.18a32.27,32.27,0,0,0,6.15-4.89H106l.09.1a35.21,35.21,0,0,0,6.07,4.79c.09,0,.09.09.09.18l-.64,1.27C111.31,29.14,111.31,29.14,111.22,29.14ZM110,38.37l-.72-1.54a84.41,84.41,0,0,1-10.41,1,.09.09,0,0,1-.09-.09l-.09-1.27a.09.09,0,0,1,.09-.09h.82c.54,0,1-.09,1.26-.09.55-1.18,1.09-2.44,1.63-3.89H98.37a.09.09,0,0,1-.09-.09V31a.09.09,0,0,1,.09-.09h12.85a.09.09,0,0,1,.09.09v1.27a.09.09,0,0,1-.09.09h-7.06c-.45,1.27-1,2.53-1.45,3.71,1.91-.18,3.9-.36,6-.63-.36-.73-.64-1.36-.91-1.81,0-.1,0-.19.09-.19l1.18-.63h.18c.72,1.54,1.54,3.08,2.35,4.8,0,.09,0,.18-.09.18l-1.26.63A.44.44,0,0,1,110,38.37ZM104.8,24a25.1,25.1,0,0,1-4.08,3.62H109A25.73,25.73,0,0,1,104.8,24Z"/><path class="cls-3" d="M118.64,33.76c-.63-.82-1.35-1.63-2.08-2.45v6.88a.09.09,0,0,1-.09.09h-1.36a.09.09,0,0,1-.09-.09V32.58a13.66,13.66,0,0,1-1.9,1.54c-.09.09-.18,0-.18-.09l-.36-1.63c0-.09,0-.09.09-.09A10.62,10.62,0,0,0,117,27.06h-3.89A.09.09,0,0,1,113,27V25.61a.09.09,0,0,1,.09-.09h2V23.08a.09.09,0,0,1,.09-.09h1.36a.09.09,0,0,1,.09.09v2.26h2a.09.09,0,0,1,.09.09V27a11.56,11.56,0,0,1-1.35,2.8,34,34,0,0,1,2.44,2.81c.09.09.09.09,0,.18l-.91,1C118.73,33.85,118.73,33.85,118.64,33.76Zm8.24,4h-8.24a.09.09,0,0,1-.09-.09V36.2a.09.09,0,0,1,.09-.09h3.71V27.87h-3.07a.09.09,0,0,1-.09-.09V26.43a.09.09,0,0,1,.09-.1h3.07V23.08a.09.09,0,0,1,.09-.09h1.45a.09.09,0,0,1,.09.09v3.16h2.63a.09.09,0,0,1,.09.09v1.36a.09.09,0,0,1-.09.09H124V36h2.9a.09.09,0,0,1,.09.09v1.36C127,37.74,127,37.74,126.88,37.74Z"/><path class="cls-3" d="M146.43,28.24c-2.9.27-4.8.63-5.8.81a3.1,3.1,0,0,1-.81.09,2.63,2.63,0,0,1-2.35-1.9c-.37-.81.45-1.54,1.08-1.09a3,3,0,0,0,2,.55,41.75,41.75,0,0,0,7.51-.55,2.53,2.53,0,0,0,1-.36,1,1,0,0,1,.72-.27,1.48,1.48,0,0,1,1.18.91A3.65,3.65,0,0,1,151.4,28a1.14,1.14,0,0,1-.63.91,4.62,4.62,0,0,0-.63,1.18,17,17,0,0,1-4.08,6.06,18.87,18.87,0,0,1-5.52,3.35.84.84,0,0,1-.63-1.54,16.29,16.29,0,0,0,5.7-4.44,15.3,15.3,0,0,0,2.63-5.15c.09-.19,0-.28-.19-.28Zm1.9-4.8h-.28c-.27,0-.63-.09-1.08-.09a23.9,23.9,0,0,0-4.71.45,2.49,2.49,0,0,1-.81.09,2.59,2.59,0,0,1-2.26-1.63c-.46-.81.45-1.63,1.08-1.08a2.62,2.62,0,0,0,1.72.54A11.33,11.33,0,0,0,146.7,21a1.69,1.69,0,0,1,.72-.19,1.93,1.93,0,0,1,1.27.64,1.67,1.67,0,0,1,.63,1.08C149.41,23.17,148.78,23.44,148.33,23.44Z"/><path class="cls-3" d="M165.25,29.23c0,3.62.09,6.25.18,7.69a3.53,3.53,0,0,1-.45,2.45,1.59,1.59,0,0,1-1,.54c-1.08,0-1.17-1.36-1.08-2,.18-2.35.27-5.52.27-9.41A30.64,30.64,0,0,1,156.11,32c-.91.27-1.45-1.09-.63-1.45a30.07,30.07,0,0,0,9.23-6c1.62-1.62,2.17-2.44,2.17-2.71,0,0,0-.09-.18-.27a1,1,0,0,1-.09-1.09.86.86,0,0,1,.9-.27c1.27.36,2.26,1,2.26,2a2.3,2.3,0,0,1-.63,1.27,24.39,24.39,0,0,1-3.8,3.53v2.26Z"/><path class="cls-3" d="M177.92,30.23c-.45,0-.91-.46-1.18-.82a7.14,7.14,0,0,0-3.07-2.8.83.83,0,0,1,.54-1.54c3,.63,5,1.81,5,3.71A1.3,1.3,0,0,1,177.92,30.23Zm.9,7.51c-1,.54-1.26.72-1.81.72-.9,0-1.63-1-2.08-2.35-.27-.82.73-1.63,1.27-.91.27.37.45.46.54.46.73,0,2.17-.73,4.26-2.36a26.37,26.37,0,0,0,7.42-9.23c.45-.9,1.72-.09,1.35.91A26.08,26.08,0,0,1,178.82,37.74Zm1.63-11.86a1.22,1.22,0,0,1-1-.54,6.39,6.39,0,0,0-3.17-3,.84.84,0,0,1,.54-1.54,8.37,8.37,0,0,1,3.71,1.63,2.8,2.8,0,0,1,1.09,2.08A1.07,1.07,0,0,1,180.45,25.88Zm7-2.62c-.36,0-.63-.36-.9-.82a4.71,4.71,0,0,0-1.18-1.81.55.55,0,0,1-.09-.63c.18-.27.36-.27.54-.18,1.54.63,2.45,1.45,2.45,2.53C188.24,22.9,188,23.26,187.42,23.26Zm1.9-1.72c-.45,0-.72-.36-.9-.82A5.63,5.63,0,0,0,187.24,19a.55.55,0,0,1-.09-.63.43.43,0,0,1,.54-.18c1.54.54,2.45,1.36,2.45,2.35C190.14,21.18,189.86,21.54,189.32,21.54Z"/><path class="cls-3" d="M197.29,27.42c-.37,0-.91-.36-1.27-1.18a9.22,9.22,0,0,0-3.08-3.53c-.81-.45-.18-1.62.63-1.44a11,11,0,0,1,3.9,2.17,3.32,3.32,0,0,1,1.08,2.26C198.55,26.7,198.19,27.42,197.29,27.42Zm2.62,8c-2.26,1.72-3.89,2.72-4.8,2.72-1.08,0-1.72-1.09-2.08-2.44-.27-.91.82-1.63,1.36-.91.27.36.45.45.54.45.82,0,2.45-.81,4.89-2.71a29.2,29.2,0,0,0,7-8.33c.54-.9,1.72.09,1.26,1A29.49,29.49,0,0,1,199.91,35.38Z"/><path class="cls-3" d="M217.74,25.43h0a18.53,18.53,0,0,1-5.88,6.24c-.73.46-1.63-.72-.91-1.26a17.9,17.9,0,0,0,4.34-5.25,7.63,7.63,0,0,0,1.18-2.81c0-.18,0-.27-.36-.45a.76.76,0,0,1-.18-1.09.88.88,0,0,1,.81-.36c1.27.18,2.45.64,2.45,1.81a3.44,3.44,0,0,1-.46,1.36,19.45,19.45,0,0,0,2.9-.36,2.43,2.43,0,0,0,1-.45,1.68,1.68,0,0,1,.82-.28,1.2,1.2,0,0,1,.9.55,3,3,0,0,1,.91,1.9,1.72,1.72,0,0,1-.27.72c-.09.09-.18.18-.27.18a.09.09,0,0,1-.09.09,6.6,6.6,0,0,0-.46.91,22.85,22.85,0,0,1-6.06,9.23,17.71,17.71,0,0,1-5.61,3.08c-.91.36-1.54-1.18-.63-1.54,5-2.17,8.32-6.16,10.22-12.22.09-.27,0-.27-.18-.27Zm8-2.17c-.36,0-.63-.36-.9-.82a4.59,4.59,0,0,0-1.18-1.81.55.55,0,0,1-.09-.63c.18-.27.36-.27.54-.18,1.54.63,2.45,1.45,2.45,2.53C226.61,22.9,226.33,23.26,225.79,23.26Zm1.9-1.63c-.45,0-.72-.36-.9-.82a5.31,5.31,0,0,0-1.18-1.71.57.57,0,0,1-.09-.64.43.43,0,0,1,.54-.18c1.54.54,2.45,1.36,2.45,2.35C228.51,21.27,228.24,21.63,227.69,21.63Z"/><path class="cls-3" d="M237.65,27.06A16.58,16.58,0,0,0,240.72,24c.19-.18.09-.36-.18-.27a54.32,54.32,0,0,0-8,1.09,4.42,4.42,0,0,1-1.09.09A2.75,2.75,0,0,1,229,22.71c-.27-.9.63-1.53,1.18-.9a2.83,2.83,0,0,0,2.17.63,62,62,0,0,0,8.5-.63h.37a6.21,6.21,0,0,0,.9-.36,1.91,1.91,0,0,1,.63-.27,2.92,2.92,0,0,1,2,2,1,1,0,0,1-.73.9c-.09.09-.36.27-.9.73a19,19,0,0,1-5.07,4c0,.09,0,.09-.09.09a3.38,3.38,0,0,1-.09.9,14,14,0,0,1-2.26,7.15,10.92,10.92,0,0,1-3.62,3c-.82.45-1.54-.91-.82-1.36,2.9-1.9,4.35-4.88,4.35-9,0-.81-.19-1.17-.64-1.45-.81-.54-.36-1.53.54-1.53a4,4,0,0,1,2.27.54Z"/><path class="cls-3" d="M251.76,28.6c2,0,7.79-.09,8.87-.27A1.92,1.92,0,0,1,263,29.41c.18.91-1,1.45-2.27,1.36-.45,0-5.52-.18-6.6-.18a10.7,10.7,0,0,0-4.17.63,1.24,1.24,0,0,1-1,0,4.48,4.48,0,0,1-1.81-3.17c0-.18.18-1.44,1.09-.27C248.6,28.24,248.87,28.6,251.76,28.6Z"/><path class="cls-3" d="M272.22,26.43a22.67,22.67,0,0,1-6.79,10.31c-.72.64-1.72-.45-1.09-1.08a20.83,20.83,0,0,0,4.89-8.33,7.06,7.06,0,0,0,.54-2.35c0-.09,0-.27-.45-.46a.83.83,0,0,1,.45-1.53c1.54.09,2.72.63,2.72,1.9A3,3,0,0,1,272.22,26.43Zm8.5,2.17a8.83,8.83,0,0,1,1.72,4.7c0,1-.36,1.81-1.35,1.81-.73,0-1.18-.81-1.27-1.54a19.56,19.56,0,0,0-4.8-9,.8.8,0,0,1,1.09-1.17A22.51,22.51,0,0,1,280.72,28.6Zm-.54-4.26c-.36,0-.63-.36-.9-.81a4.56,4.56,0,0,0-1.18-1.81.55.55,0,0,1-.09-.63c.18-.28.36-.28.54-.18,1.54.63,2.45,1.44,2.45,2.53A.84.84,0,0,1,280.18,24.34Zm1.9-1.72c-.45,0-.72-.36-.9-.81A5.51,5.51,0,0,0,280,20.09a.55.55,0,0,1-.09-.63.43.43,0,0,1,.54-.18c1.54.54,2.45,1.35,2.45,2.35C282.9,22.26,282.62,22.62,282.08,22.62Z"/><path class="cls-3" d="M293.67,30.14A16.93,16.93,0,0,1,299,33.85a3,3,0,0,1,1,2.08c0,.81-.36,1.63-1.27,1.63a1.31,1.31,0,0,1-1.08-.82,13.65,13.65,0,0,0-5-5.16h0v.09a20.35,20.35,0,0,1-8.33,6.79.82.82,0,0,1-.72-1.45c4.71-2.53,8-6.69,10.05-12.49.09-.18,0-.27-.19-.27-1.35.27-2.35.46-3,.64a16,16,0,0,1-2.63.54c-1.08,0-1.72-.81-2.17-1.9-.27-.72.63-1.54,1.27-1a1.6,1.6,0,0,0,1.27.37,42.63,42.63,0,0,0,5.61-.55,1.2,1.2,0,0,0,.63-.27,1,1,0,0,1,.72-.27c.64,0,1.72,1.45,1.72,2.26a1.14,1.14,0,0,1-.36.73l-.27.27a3.4,3.4,0,0,0-.45.72,33.79,33.79,0,0,1-2.17,4.35Z"/></g></g></svg>