<svg xmlns="http://www.w3.org/2000/svg" viewBox="0 0 99.81 102.62"><defs><style>.cls-1{fill:none;stroke:#000;stroke-miterlimit:10;}</style></defs><g id="Layer_2" data-name="Layer 2"><g id="design"><path d="M14,47.79c-8.79,0-14-11.22-14-23.93C0,11.34,5.11,0,14,0S28,11.21,28,23.86,22.8,47.79,14,47.79Zm0-46c-4.74,0-9.41,5.92-9.41,22.12C4.61,40.43,9.41,46,14,46c4.36,0,9.41-5.11,9.41-22.18S18.38,1.74,14,1.74Z"/><path d="M56,46.6H31.28V44.92c3.61-7.73,8.47-12.9,14.08-18.63,3.92-4,8.47-9,8.47-15.82,0-3.24-1.12-8.6-8.22-8.6-5.42,0-8,2.93-8,4.92a4.41,4.41,0,0,0,.56,1.87,6.19,6.19,0,0,1,.75,2.87,2.88,2.88,0,0,1-3.06,3.17c-2.18,0-2.86-1.55-2.86-3.49C33,5.54,38.25,0,46.48,0c7.41,0,12.15,4.49,12.15,11.53,0,4.17-1.5,6.66-4.61,10.21-1.5,1.75-9.16,8.41-10.66,9.85A52.74,52.74,0,0,0,35,42.43H47.48c7.35,0,9.28-5.36,10.4-8.41l1.18.31Z"/><line class="cls-1" x1="99.44" y1="0.4" x2="5.59" y2="102.28"/></g></g></svg>