<svg xmlns="http://www.w3.org/2000/svg" viewBox="0 0 99.81 102.62"><defs><style>.cls-1{fill:none;stroke:#000;stroke-miterlimit:10;}</style></defs><g id="Layer_2" data-name="Layer 2"><g id="design"><path d="M14,47.79c-8.79,0-14-11.22-14-23.93C0,11.34,5.11,0,14,0S28,11.21,28,23.86,22.8,47.79,14,47.79Zm0-46c-4.74,0-9.41,5.92-9.41,22.12C4.61,40.43,9.41,46,14,46c4.36,0,9.41-5.11,9.41-22.18S18.38,1.74,14,1.74Z"/><path d="M35.14,46.6v-2h2.18c4.11,0,6.11-1.87,6.11-6.11v-28c0-4.05-1.44-5.86-6.17-5.86H35.14V2.93h1A24.19,24.19,0,0,0,45.67.56,3.24,3.24,0,0,1,47,0c.31,0,.43.31.43.62V38.5c0,3.55,1.44,6.11,5.49,6.11h2.8v2Z"/><line class="cls-1" x1="99.44" y1="0.4" x2="5.59" y2="102.28"/></g></g></svg>