<svg xmlns="http://www.w3.org/2000/svg" viewBox="0 0 196 53"><defs><style>.cls-1{fill:#fff;stroke:#000;stroke-miterlimit:10;}</style></defs><g id="Layer_2" data-name="Layer 2"><g id="design"><rect class="cls-1" x="0.5" y="0.5" width="195" height="52"/><path d="M81.38,40.09h-23a18.37,18.37,0,0,0-3.24.18l-.51-1.08c1.83.15,4,.18,4.29.18h7.44V25.54H59.81a15.08,15.08,0,0,0-3.24.21l-.51-1.11c1.83.15,4,.18,4.29.18h6c0-6.33,0-7.8-.78-10.14l4.83,1c.15,0,.57.12.57.42s-.63.78-1.26,1.14c0,1.2,0,3.42,0,6.21v1.35H74.9l1.44-2.16c.15-.24.33-.39.48-.39a1.37,1.37,0,0,1,.54.33L80,24.76c.18.15.3.27.3.45s-.27.33-.45.33H69.68V39.37h6.57l1.59-2.13c.21-.27.27-.39.45-.39s.27.12.54.33l2.7,2.13a.56.56,0,0,1,.3.45C81.83,40.06,81.56,40.09,81.38,40.09Z"/><path d="M111.35,39H88.16a16.36,16.36,0,0,0-3.24.21l-.51-1.08c1.44.12,2.85.15,4.29.15h7.59V19.18H89.9a16.88,16.88,0,0,0-3.24.21l-.48-1.11a40.46,40.46,0,0,0,4.26.18H104.9l1.44-2.34c.12-.21.24-.42.45-.42a1.28,1.28,0,0,1,.57.33l2.79,2.4a.62.62,0,0,1,.3.45c0,.3-.3.3-.45.3H99.53V38.32h6.72l1.65-2.43c.12-.18.3-.39.45-.39a1.17,1.17,0,0,1,.57.3l2.58,2.49c.18.15.3.27.3.45S111.5,39,111.35,39Z"/><path d="M141.62,31.3h-4.44c0,.6.12,3.24.12,3.78,0,1.05-1.14,1.47-1.86,1.47-1.32,0-1.26-.84-1.2-1.59h-4.83a25.11,25.11,0,0,1-.15,4.35c-.12.42-.66,2.13-4,2.61a5.64,5.64,0,0,0-3.75-4.05v-.18a26.76,26.76,0,0,0,3.48.24c1,0,1.14-.09,1.23-.72a18.62,18.62,0,0,0,.06-2.25H120.8a15.08,15.08,0,0,0-3.24.21l-.51-1.11c1.83.15,4,.18,4.29.18h5l0-2.94h-8.52a17.44,17.44,0,0,0-3.24.21l-.48-1.11c1.83.18,3.93.18,4.26.18h8V27.82h-5.79a17.44,17.44,0,0,0-3.24.21l-.48-1.11c1.83.18,3.93.18,4.26.18h5.25c0-2,0-2.16,0-2.79h-4.74c0,.45.06,1.56-1.86,1.56-1,0-1.14-.42-1.14-1,0-.39.09-2,.09-2.37a15.17,15.17,0,0,0-.21-3.51l3.3,1.26h4.53V17.92h-7.71a15.08,15.08,0,0,0-3.24.21L114.89,17c1.83.18,3.93.18,4.26.18h7.14a12.19,12.19,0,0,0-.54-3.51l4.23,1c.33.09.6.18.6.42s-.66.75-1.17,1c0,.12,0,1,0,1.14h6.48l1.38-1.89c.18-.24.3-.36.45-.36a1.05,1.05,0,0,1,.57.3l2.34,1.89a.7.7,0,0,1,.3.48c0,.21-.21.3-.45.3h-11.1v2.31h4.59l.78-1c.21-.24.33-.36.48-.36a1.14,1.14,0,0,1,.54.24l1.86,1.23a.57.57,0,0,1,.3.42c0,.3-.42.6-.84.9,0,2.25,0,2.52,0,2.61-.09.57-1,1.11-1.86,1.11-1,0-1-.48-1-1.11h-4.83V27.1h4.8l.81-1c.21-.27.36-.39.51-.39a1.31,1.31,0,0,1,.6.3l1.8,1.23a.56.56,0,0,1,.3.45c0,.3-.15.42-.93,1,0,1.2,0,1.32,0,1.92H138l1.17-1.68c.15-.24.27-.36.48-.36a.89.89,0,0,1,.54.33l1.62,1.65a.85.85,0,0,1,.3.48C142.07,31.24,141.83,31.3,141.62,31.3ZM126.32,21h-4.74v2.64h4.77Zm7.86,0h-4.83l0,2.64h4.86Zm.09,6.87h-5l0,2.76h4.92Zm0,3.48h-4.89l0,2.94h4.86Z"/></g></g></svg>