<svg xmlns="http://www.w3.org/2000/svg" viewBox="0 0 727.8 125.49"><defs><style>.cls-1{fill:#e68f12;}</style></defs><g id="Layer_2" data-name="Layer 2"><g id="design"><path d="M25.55,119c-2.31,1-8.35,1.28-11,1.28-10.24,0-14.6-3.92-14.6-8a7.24,7.24,0,0,1,3.12-6,11,11,0,0,0-.8,3.64,5.45,5.45,0,0,0,2,4.08c2.16,1.92,6.68,2,7.44,2a47,47,0,0,0,9.56-1,7.5,7.5,0,0,1,1.44-.2c1.64,0,3.91,1,3.91,2.6A1.83,1.83,0,0,1,25.55,119ZM20.08,98a18.89,18.89,0,0,0-8,1.28,30.09,30.09,0,0,0-4,1.64L8,100.61c.52-.44,1-1,3-2.48a9.59,9.59,0,0,0,1.56-1.28c0-.28-.56-.36-.76-.36-1.68-.12-8.2-1.55-8.16-6,3.08,2.64,6.52,2.68,9.28,2.68.72,0,3.76-.12,4.4-.12C21.24,93,23,95,23,96.29S21.56,98,20.08,98Zm7.15-1.68c-.68,0-.84-.2-2.11-2A9.84,9.84,0,0,0,21.4,90.9c4.8.16,7.23,1.91,7.23,3.83A1.5,1.5,0,0,1,27.23,96.29Zm4.2-2c-.6,0-.76-.16-2-1.84a8.85,8.85,0,0,0-3.87-3.12c.48,0,.76,0,1.19,0,2.28,0,6.12,1,6.12,3.51A1.4,1.4,0,0,1,31.43,94.3Z"/><path d="M69.59,94.65H42.8c0,12.6-.2,21.4-7.44,28.64l-.32-.12a27,27,0,0,0,2.28-6.32,69.84,69.84,0,0,0,1.36-15.4c0-2.48,0-7.64-.64-9.79l5,2h8.48c0-4.07-.36-5.11-.72-6l5.52,1.2c.24,0,.6.16.6.56s-.32.6-1.24,1.2c0,.4,0,2.6,0,3.07h8.28L65.6,91.1c.11-.2.32-.52.6-.52a1.49,1.49,0,0,1,.72.44l2.87,2.59c.24.2.4.37.4.61C70.19,94.61,69.83,94.65,69.59,94.65ZM43.8,119.33a2.16,2.16,0,0,1-2.28-2c0-.8.16-1,1.76-3.16a13.62,13.62,0,0,0,2.32-6.92l.28-.08a17.15,17.15,0,0,1,1.24,6.2C47.12,114.73,46.88,119.33,43.8,119.33Zm20,2.76c-1.28,1.08-1.72,1.08-6,1.08-7.56,0-8.44,0-8.44-6.88,0-1.24.16-6.68.16-7.8,0-4.12-.2-5-.48-6.08l5.36,1.44c.24.08.48.16.48.48s-.68.88-1.32,1.32c-.16,3.32-.2,6.84-.2,10.16,0,2.64,0,3,.68,3.24a14.58,14.58,0,0,0,3.32.24c2.72,0,3-.28,3.32-.84a31.77,31.77,0,0,0,1.4-5.24h.32c.12.48.52,2.68.6,3.08.32,1.24.44,1.28,1.76,2.08a.93.93,0,0,1,.52.84A4.62,4.62,0,0,1,63.84,122.09Zm-5.24-16c-1.08,0-1.32-.52-2.08-2.4a19.64,19.64,0,0,0-3.84-6v-.32c7.2,2,8.28,5.08,8.28,6.36A2.41,2.41,0,0,1,58.6,106.13Zm9.79,10.24c-1.43,0-1.6-.72-2.27-3.44a27.87,27.87,0,0,0-3.28-7.52l.2-.28c2.51,1.48,7.79,4.56,7.79,8.52A2.55,2.55,0,0,1,68.39,116.37Z"/><path d="M109.43,118.09a17.38,17.38,0,0,1-6.87-3.72c.2.64-.24.92-.8,1.36-.6,7-2.76,8.16-7.28,8.4-.32-2.48-1.2-3.36-3.12-5l0-.2a24.43,24.43,0,0,0,4.52.64c.52,0,.84-.08,1.08-.48a12.88,12.88,0,0,0,.8-4.48h-5c-2,4.68-7,9.16-14.48,10.08v-.28c4.72-2.16,8.76-5.56,10.48-9.8h-.68a20.1,20.1,0,0,0-4.32.28l-.4-.92a31.08,31.08,0,0,1-8.4,4v-.28a41.6,41.6,0,0,0,10.68-9.4h-5a19.86,19.86,0,0,0-4.32.28l-.68-1.48c2.44.2,5.28.24,5.72.24h5a34.08,34.08,0,0,0,2.28-3.48h-3c0,1,0,2-2.4,2-1.44,0-1.44-.8-1.44-1.2,0-.88.12-4.72.12-5.48a26,26,0,0,0-.4-5.07l4.4,1.55h14.44l1-1.24c.24-.27.44-.43.68-.43a1.79,1.79,0,0,1,.75.35L105.24,96c.2.16.44.4.44.6s-.21.52-1.21,1.48c0,.88.13,4.72.13,5.52,0,1.52-1.89,1.88-2.64,1.88-1.32,0-1.32-.76-1.28-1.68H90.52l2.56.8c.24.08.56.28.56.6s-.36.6-1.48,1c-.36.48-.48.68-.84,1.12h13.6l1.79-2.32c.28-.36.49-.52.68-.52a1.55,1.55,0,0,1,.76.4l3.16,2.36a1,1,0,0,1,.44.6c0,.28-.28.44-.6.44H98.44c6,4.2,10,5.08,13.83,5.28v.28A6.17,6.17,0,0,0,109.43,118.09Zm1.2-25.83H99.8a11.15,11.15,0,0,1-.16,2.35c-.44.64-1.8.68-2.16.68-1.28,0-1.28-.27-1.24-3H89.92c0,2,0,2.23-.24,2.47a3.12,3.12,0,0,1-2,.64c-.68,0-1.28-.2-1.32-.76,0-.2,0-1.55,0-2.35H80.64a20.1,20.1,0,0,0-4.32.28l-.64-1.48c2.44.2,5.24.24,5.68.24h4.92a24.52,24.52,0,0,0-.4-3.76l4.32.88c.44.08.76.24.76.6s-.28.56-1,1c0,.2,0,1.08,0,1.28h6.36a21.7,21.7,0,0,0-.48-3.88l4.4,1c.32.08.64.24.64.52s-.36.64-1,1.2v1.2h4.76l1.84-2.4c.23-.32.39-.48.6-.48a1.52,1.52,0,0,1,.75.4l3,2.4a1,1,0,0,1,.4.59C111.23,92.1,111,92.26,110.63,92.26Zm-21,16.83a42.35,42.35,0,0,1-5.48,4.4c1.6.12,4.4.16,5,.16a9.7,9.7,0,0,0,.52-2.92C89.64,110.49,89.6,109.33,89.6,109.09Zm11.08-12.48H85.56v2.6h15.12Zm0,3.56H85.56v2.68h15.12Zm-3.28,8.08h-7l-.72.72,4.36,1.24c.24.08.72.24.72.6s-.32.56-1.16,1a16.46,16.46,0,0,1-.52,1.88h4.36l1-1.08a1,1,0,0,1,.68-.44,1.29,1.29,0,0,1,.8.32l1.8,1.24A23.92,23.92,0,0,1,97.4,108.25Z"/><path d="M128.64,113.57a4.66,4.66,0,0,0-.24,1.12c0,.44.56,2.32.56,2.68a1.79,1.79,0,0,1-1.92,1.84c-2,0-7.6-2.72-8-14,0-.92-.12-5-.2-5.8a11.91,11.91,0,0,0-1.8-5.64c2.84.25,6.48,2,6.48,5.2a6.67,6.67,0,0,1-.2,1.24,30.07,30.07,0,0,0-1,6.64c0,3.76,1.8,6.32,2.56,6.32.52,0,1.52-1.28,2.08-2,1.36-1.8,4.36-6.08,5.12-7.28l.28.12C132,104.77,128.68,113.41,128.64,113.57Zm18.59-.84c-.68,0-.87-.2-2.52-2-1-1.16-4.27-1.72-5.15-1.88v-.28c.32,0,4-.44,4.48-.6a1,1,0,0,0,.64-1.08,14.1,14.1,0,0,0-1.92-5.48,18.5,18.5,0,0,0-4.36-4.76c5.23-.08,11.15,6.16,11.15,11.92C149.55,110.93,148.31,112.73,147.23,112.73Z"/><path d="M175.72,98.17a45,45,0,0,1-6.44,2.24c-2.84,8.36-6.12,16.84-7.08,18.84-1.24,2.68-1.8,2.72-2.48,2.72a2.45,2.45,0,0,1-2.16-2.64c0-.92.12-1.16,1.4-3.24a70.9,70.9,0,0,0,7-15,26,26,0,0,1-3.92.44c-3.52,0-4.92-2.32-5.16-4a9.23,9.23,0,0,0,4.6,1.08,21.36,21.36,0,0,0,5.48-.8,21.68,21.68,0,0,0,1-5c0-1.71-1.72-2.47-3.08-2.83a3.36,3.36,0,0,1,2.52-1c1.84,0,5.24,1.44,5.24,3.32,0,.55-.12.76-.72,1.8a16.15,16.15,0,0,0-1.28,2.51,11.22,11.22,0,0,0,2.2-1.08c1.64-1,1.84-1.16,2.52-1.16a2.25,2.25,0,0,1,2.2,2C177.6,97.33,176.44,97.85,175.72,98.17Zm12.75,23a14,14,0,0,1-5.59.88c-9.8,0-11.4-4.36-11.4-6.12a5.55,5.55,0,0,1,1.84-4.08,7.24,7.24,0,0,0-.2,1.64c0,4.36,5.12,4.36,7.08,4.36a19.68,19.68,0,0,0,4.51-.48,6.33,6.33,0,0,1,1.49-.2,3.45,3.45,0,0,1,3.07,2.8A1.28,1.28,0,0,1,188.47,121.17Zm-.35-16.32c-.45,0-2.52-.2-2.92-.2-2,0-5.76,1.68-6.36,2l-.12-.24c1.08-.8,3.76-2.72,3.76-3.36,0-1-3.64-1-4-1a12,12,0,0,0-2.8.24c2.2-2.24,5.88-2.6,7.56-2.6,5,0,6.55,2.6,6.55,3.72S189.11,104.85,188.12,104.85Z"/><path d="M216.56,97.81a29.27,29.27,0,0,1-7,2.52c-3.2,9-4.68,13.12-7.12,18.92-.6,1.36-1.2,2.68-2.44,2.68a2.5,2.5,0,0,1-2.32-2.52c0-.84.2-1.2,2.08-4.32a62.57,62.57,0,0,0,6.4-14,20.63,20.63,0,0,1-4,.48,4.92,4.92,0,0,1-5.12-4,10.21,10.21,0,0,0,4.68,1.12,21,21,0,0,0,5.44-.88c.92-3.4,1-4.08,1-4.92,0-1.67-.92-2.19-3-3a4.41,4.41,0,0,1,2.8-.92c2,0,4.92,1.6,4.92,3.2a4.35,4.35,0,0,1-.56,1.67c-.28.56-1.16,2.36-1.32,2.72a10.46,10.46,0,0,0,2.6-1.39,3.55,3.55,0,0,1,2-.81,2.41,2.41,0,0,1,2.28,1.92C217.84,97.13,217,97.57,216.56,97.81Zm11.91,23.48a30.3,30.3,0,0,1-6.27.64c-4.6,0-10.6-1.2-10.6-5.84a6.16,6.16,0,0,1,2-4.4,14.54,14.54,0,0,0-.24,1.84c0,4.24,5.08,4.24,7.08,4.24a24,24,0,0,0,4-.28,8.07,8.07,0,0,1,2-.32c1.47,0,3.15,1.44,3.15,2.64A1.65,1.65,0,0,1,228.47,121.29Zm0-16.48c-.48,0-2.55-.2-3-.2-1.68,0-4.67,1.2-6.31,1.92l-.12-.24c.92-.64,3.72-2.68,3.72-3.32,0-1-3.2-1-3.72-1a19.11,19.11,0,0,0-3.12.2c1.6-1.68,5.44-2.68,7.68-2.68,3.36,0,6.47,1.84,6.47,3.76A1.43,1.43,0,0,1,228.47,104.81Zm-2.43-8c-.68,0-.76-.16-2.16-1.79a17,17,0,0,0-4-3.25c3.6,0,7.63,1.21,7.63,3.48A1.49,1.49,0,0,1,226,96.85Zm3.59-3.12c-.72,0-1.12-.51-1.56-1.12a14.7,14.7,0,0,0-5-3.79c1.88-.12,7.95,0,7.95,3.28A1.5,1.5,0,0,1,229.63,93.73Z"/><path d="M262.71,115.41c-.51,0-.67-.12-2.39-1.52-1.44-1.16-6.52-2.56-10.08-2.56-1.56,0-5.76.28-5.76,3.84,0,3.4,3.88,4,7,4,1.16,0,2.48-.12,3.24-.2.48,0,2.48-.4,2.88-.4,1.52,0,3.68,1,3.68,2.52,0,1.88-2.12,2-6.8,2-1.84,0-7.64,0-10.4-2.72a6,6,0,0,1-1.84-4.28c0-6.16,7.84-6.16,9.92-6.16a44.56,44.56,0,0,1,7.36.68c.08,0,.24,0,.32,0s.32,0,.32-.24-3.56-4.8-4.2-5.72a32,32,0,0,1-8.92,1.64,6.2,6.2,0,0,1-6-4,10.42,10.42,0,0,0,5.24,1.44,23.12,23.12,0,0,0,8-1.72c-1.16-2.12-1.68-3.16-2-3.8a21.68,21.68,0,0,1-5.64,1.08,5.33,5.33,0,0,1-5-3.2,7.54,7.54,0,0,0,3.6.76,16.84,16.84,0,0,0,5.8-1.16c-1.92-4.08-2.24-4.75-4.48-4.75a7.4,7.4,0,0,0-1.56.24c.28-.88.92-3,4.44-3,2.64,0,3.72.84,3.8,2.44a14.06,14.06,0,0,0,.56,3.83A23.76,23.76,0,0,0,256.2,93a3.35,3.35,0,0,1,2.08-.92c1,0,2.32.59,2.32,1.55,0,1.45-4,3.12-5.84,3.84a29,29,0,0,0,1.8,3.56c.88-.44,1.84-1,3.24-1.8,1.64-1,1.8-1.16,2.4-1.16,1,0,2.51.72,2.51,1.72,0,.64-.39,1.08-1.23,1.6a29.5,29.5,0,0,1-5.08,2.48,27.23,27.23,0,0,0,3.72,4.24c2.4,2.24,2.71,2.56,2.71,4.12S264,115.41,262.71,115.41Z"/><path d="M293.8,123.61v-.24c2.76-.68,11-4.28,11-11.56a7.2,7.2,0,0,0-3.2-6.28,9.39,9.39,0,0,0-1.6-.72c-.52,1.92-4.24,7.36-7.52,10.28,1,1.44,1,1.6,1,2.32,0,1.16-.76,2.48-1.72,2.48-1.28,0-2-1.44-2.44-2.48-1.8,1.32-5,3.64-7.76,3.64a2.73,2.73,0,0,1-2.44-1.92,3.72,3.72,0,0,0-1.12-1.52,2.47,2.47,0,0,1-.68-1.92c0-3,4-8,10.36-10.72.08-.88.2-2.52.64-5.48a21.52,21.52,0,0,1-3.8.4c-1.88,0-3.24-.24-4.48-1.52a3.55,3.55,0,0,1-1.24-2.08,12.3,12.3,0,0,0,4.68.88,32.33,32.33,0,0,0,5.32-.6,23.69,23.69,0,0,0,.64-4.19c0-2-1-2.28-3-3a4.14,4.14,0,0,1,2.88-1.12c2.48,0,5,1.64,5,2.88,0,.56-.08.71-.92,2.28a24.44,24.44,0,0,0-1,2.31,40.21,40.21,0,0,0,4.6-1.92,2.13,2.13,0,0,1,1-.24c1.12,0,3.12,1,3.12,2.08,0,.76-1,1.2-1.68,1.44a54.84,54.84,0,0,1-8,1.88,37.6,37.6,0,0,0-.92,5,24.59,24.59,0,0,1,5.8-1,5,5,0,0,0-.92-2c2.88-.28,4.16,1.2,4.56,2.2,7.28,1.16,9.43,5.84,9.43,9.28C309.35,115.53,307.55,122.37,293.8,123.61Zm-6.2-17.16c-5.4,3.28-7.2,8.4-7.2,9.84a1.59,1.59,0,0,0,1.72,1.8c.92,0,3.56-.84,6.4-3.12A26.26,26.26,0,0,1,287.6,106.45Zm2.76-1.28a18.09,18.09,0,0,0,.88,7.32,23.18,23.18,0,0,0,5-8.24A15.68,15.68,0,0,0,290.36,105.17Z"/><path d="M328.92,124.89c5.44-3.92,9.28-10.8,9.28-21.52,0-2.72-.2-9-2.8-9-3,0-6.48,8.72-6.48,13.16,0,.76.4,4,.4,4.68,0,1.2-.64,2-1.68,2-1.84,0-3.56-2.84-3.56-8.4a61.85,61.85,0,0,1,.92-9.4c.36-2.56.52-3.68.52-4A3.73,3.73,0,0,0,323,89a4.82,4.82,0,0,1,2.68-.88c1.6,0,4.36,1.48,4.36,3.32a6.43,6.43,0,0,1-1,2.64,21.39,21.39,0,0,0-2.36,9.63c0,.36,0,1.68.28,1.68s.4-.52.52-.92c1.32-3.8,4.44-12.11,9.16-12.11,5.92,0,5.92,11.15,5.92,12.19,0,5.24-.68,15.72-13.52,20.6Z"/><path d="M373.8,120.09a6.75,6.75,0,0,1-4.24,2.44c-1.24,0-1.56-.84-1.68-2.32s-.12-2-2.56-5.48l.2-.2c.68.4,3.84,2.32,4.76,2.32,2.28,0,4.32-7.48,4.32-13.08,0-2.76-1-3.36-2.6-3.36a8.87,8.87,0,0,0-1.8.16c-.4.8-3.2,7.08-3.84,8.36-.56,1.08-3.32,6.64-3.84,7.68-1.68,3.32-2.48,4.72-3.68,4.72-1.36,0-1.84-1.48-1.84-2.64a4.28,4.28,0,0,1,1.2-2.8c3.76-5.08,5.64-7.64,8.36-14.28a28.52,28.52,0,0,0-5.12,2.52,3.09,3.09,0,0,1-1.92.84c-1.56,0-3.32-2.2-3.32-4.2a3.49,3.49,0,0,1,1-2.32c.64,1.88,1.64,2.24,2.56,2.24a6.51,6.51,0,0,0,1.24-.12c1.4-.32,5.24-1.2,6.6-1.48a21.93,21.93,0,0,0,1.6-5.75c0-1.2-.56-1.84-3-2.76a4.78,4.78,0,0,1,3-1.08,6.68,6.68,0,0,1,4.48,2.31,1.5,1.5,0,0,1,.36,1c0,.72-.2,1.13-1,2.25-.48.71-1.16,2.11-1.88,3.55,5.76-.36,6.68,2.2,6.68,6.92C377.84,110,376.12,117.45,373.8,120.09Zm15.83-8.48c-.75,0-1.08-.32-2.12-1.32a8.89,8.89,0,0,0-5.71-2.2l0-.36c3.4-.32,4.63-1,4.63-1.64a11.39,11.39,0,0,0-2.76-5,19.17,19.17,0,0,0-4.27-3.32c7.79.68,12.11,6.48,12.11,10.8C391.47,109.21,391.27,111.61,389.63,111.61Zm-1.92-13.24c-.43,0-.79-.28-2.32-1.76a11.44,11.44,0,0,0-4.23-2.88c3.88-.24,7.91.68,7.91,3.12A1.42,1.42,0,0,1,387.71,98.37Zm3.8-3.12c-.64,0-1-.27-2.55-1.8a11.14,11.14,0,0,0-4.72-2.51,20.6,20.6,0,0,1,3-.24c.84,0,5.55,0,5.55,3A1.4,1.4,0,0,1,391.51,95.25Z"/><path d="M424.71,121c-1.59.72-6.71.88-8.51.88-2.2,0-9.8-.16-12.72-2.6a6.13,6.13,0,0,1-2.2-4.56c0-5.4,6.32-9.2,8.2-10.24a7.29,7.29,0,0,1-1.8-4.76c0-6.2,0-6.67-.24-7.51-.56-2-3-2.44-4-2.6a4.41,4.41,0,0,1,3.28-1.24c2,0,6.12,1.44,6.12,3a2.56,2.56,0,0,1-.32,1.08,19.2,19.2,0,0,0-1.16,7.39,5.14,5.14,0,0,0,.72,3.2,70.13,70.13,0,0,1,6.64-3c.88-.36,1.4-.68,1.4-1.32a4.06,4.06,0,0,0-.6-1.64c3.28.48,5.07,2.48,5.07,4.64,0,1.68-.84,1.76-2.63,2-10.12,1-18.92,5.84-18.92,10.32,0,3.88,5.4,3.88,8.12,3.88a44.55,44.55,0,0,0,9.28-1,9.59,9.59,0,0,1,1.6-.2c1.28,0,3.63.72,3.63,2.6A1.55,1.55,0,0,1,424.71,121Z"/><path d="M448.08,125.49l-.12-.28c6.32-3,10.48-11.72,10.48-18.52,0-2.4-.84-6.24-3.4-6.24-3.28,0-7.28,5.68-7.56,6-.68,1-1.16,1.68-2.16,1.68a5.17,5.17,0,0,1-4.48-5,4.75,4.75,0,0,1,.88-2.76c.64,1.6,1.16,2.44,2.44,2.44a6,6,0,0,0,2.8-1c4.76-2.4,6.12-3.12,8.72-3.12,6.72,0,7.11,7.32,7.11,9C462.79,113.77,459.32,122.85,448.08,125.49ZM458.2,95.06c-.6,0-3.2-.37-3.72-.37a18.16,18.16,0,0,0-5,1l0-.2c.52-.31,3.12-2,3.12-2.55,0-.32-.4-.48-.64-.56-2.48-.84-3.68-1.64-4.56-2.8A6,6,0,0,1,446,86.3c2,2,3.2,2.24,8.48,3.12,3.44.56,5.32,2,5.32,4.11A1.45,1.45,0,0,1,458.2,95.06Z"/><path d="M505.55,119c-2.31,1-8.35,1.28-10.95,1.28-10.24,0-14.6-3.92-14.6-8a7.24,7.24,0,0,1,3.12-6,11,11,0,0,0-.8,3.64,5.45,5.45,0,0,0,2,4.08c2.16,1.92,6.68,2,7.44,2a47,47,0,0,0,9.56-1,7.5,7.5,0,0,1,1.44-.2c1.64,0,3.91,1,3.91,2.6A1.83,1.83,0,0,1,505.55,119Zm-5.47-21a18.89,18.89,0,0,0-8,1.28,30.09,30.09,0,0,0-4,1.64l-.16-.28c.52-.44,1-1,3-2.48a9.59,9.59,0,0,0,1.56-1.28c0-.28-.56-.36-.76-.36-1.68-.12-8.2-1.55-8.16-6,3.08,2.64,6.52,2.68,9.28,2.68.72,0,3.76-.12,4.4-.12,3.92,0,5.68,2,5.68,3.27S501.56,98,500.08,98Zm7.15-1.68c-.68,0-.84-.2-2.11-2a9.77,9.77,0,0,0-3.72-3.43c4.8.16,7.23,1.91,7.23,3.83A1.5,1.5,0,0,1,507.23,96.29Zm4.2-2c-.6,0-.76-.16-2-1.84a8.8,8.8,0,0,0-3.88-3.12c.49,0,.77,0,1.2,0,2.28,0,6.12,1,6.12,3.51A1.4,1.4,0,0,1,511.43,94.3Z"/><path d="M543.52,112.69a2.5,2.5,0,0,1-1.52-.64,18.33,18.33,0,0,0-10.76-3.52c-5.72,0-7.16,3-7.16,4.8,0,2.8,2.52,4.68,7.76,4.68.84,0,4.52-.16,5.28-.16,2.64,0,3.64,1.88,3.64,2.72,0,1.76-2.2,2-4.2,2-2.68,0-7.76-.48-10.2-1.8-1.52-.8-4.32-2.84-4.32-6.44,0-6.4,7.24-7.36,11.4-7.36a35.18,35.18,0,0,1,5.16.4c.24,0,1.4.28,1.6.28s.4-.08.4-.36-1.64-3.16-6.68-7.56a29.83,29.83,0,0,1-8.88,1.84,5.4,5.4,0,0,1-5.48-4.72c1.88,1.24,2.84,1.84,5.12,1.84a22.51,22.51,0,0,0,6.4-1.16c-.8-.56-4.48-2.92-5.16-3.51a1.47,1.47,0,0,1-.56-1.21c0-1.39,1.88-3.87,3.4-3.87a7.08,7.08,0,0,1,3.32,1.4c-1.84.44-2.4.56-2.4,1.47,0,.33.12.53.52.92,1.2,1.25,2.08,2.12,3.8,3.68,1.4-.6,4.84-2.23,4.84-3.23,0-.53-.4-.72-1.28-1.16l0-.13a6.22,6.22,0,0,0,1.76.17,5.6,5.6,0,0,0,1.64-.21,5.63,5.63,0,0,1,1.28-.27,1.77,1.77,0,0,1,1.8,1.68c0,2.07-5.32,4.51-7.52,5.47a69.15,69.15,0,0,1,8.15,8,4.21,4.21,0,0,1,1.08,2.6C545.79,110.85,544.63,112.69,543.52,112.69Zm5.36-17.55c-.49,0-.53,0-1.8-1.69a13.58,13.58,0,0,0-4-3.79c1.71,0,7.15.84,7.15,3.87A1.5,1.5,0,0,1,548.88,95.14Zm3.23-3.48c-.56,0-.84-.36-1.44-1.12a13.58,13.58,0,0,0-4.59-3.68c2.47-.16,7.31.64,7.31,3.28A1.44,1.44,0,0,1,552.11,91.66Z"/><path d="M568.64,113.57a4.66,4.66,0,0,0-.24,1.12c0,.44.56,2.32.56,2.68a1.79,1.79,0,0,1-1.92,1.84c-2,0-7.6-2.72-8-14,0-.92-.12-5-.2-5.8a11.91,11.91,0,0,0-1.8-5.64c2.84.25,6.48,2,6.48,5.2a6.67,6.67,0,0,1-.2,1.24,30.07,30.07,0,0,0-1,6.64c0,3.76,1.8,6.32,2.56,6.32.52,0,1.52-1.28,2.08-2,1.36-1.8,4.36-6.08,5.12-7.28l.28.12C572,104.77,568.68,113.41,568.64,113.57Zm18.59-.84c-.68,0-.88-.2-2.52-2-1-1.16-4.27-1.72-5.15-1.88v-.28c.32,0,4-.44,4.48-.6a1,1,0,0,0,.63-1.08,14,14,0,0,0-1.91-5.48,18.5,18.5,0,0,0-4.36-4.76c5.24-.08,11.15,6.16,11.15,11.92C589.55,110.93,588.31,112.73,587.23,112.73Z"/><path d="M625.12,96.33a56.79,56.79,0,0,1-9.2,2.28c-.12,2-.12,2.64-.12,4.76.8-.24,4.64-1.6,5.08-1.6,1.2,0,2.91.56,2.91,1.88a1.29,1.29,0,0,1-1,1.2,53.21,53.21,0,0,1-7,1.64,32.47,32.47,0,0,0,.88,7.48c6.16,1,9,3.68,9,5.64a1.91,1.91,0,0,1-1.79,2.08,4.38,4.38,0,0,1-2.24-1,31.78,31.78,0,0,0-4.6-2.92c-.24,1.76-.72,5.28-7.48,5.28-4,0-7.12-2.08-7.12-4.8,0-3.68,4.76-5.08,10.76-4.76-.28-2.6-.44-5.24-.44-6.48a45.36,45.36,0,0,1-5.2.32c-1,0-4.68,0-4.68-2,0-1,1.44-2.68,3.2-3a2.55,2.55,0,0,0-.64,1.32c0,.88,1.16.88,2.36.88a30.59,30.59,0,0,0,4.88-.4c0-2.56,0-2.88,0-5a41.2,41.2,0,0,1-5.52.52c-2,0-5.76,0-7.44-4.28a13.39,13.39,0,0,0,6.32,1.44,37.9,37.9,0,0,0,6.72-.68c.08-3.71.08-4.19-.64-4.91a5.36,5.36,0,0,0-3.12-1.2,3.62,3.62,0,0,1,3.2-1.52c.92,0,5.24.44,5.24,2.84,0,.43-.12.6-.64,2.08a9.53,9.53,0,0,0-.52,2,36.67,36.67,0,0,0,5.2-1.76,2.79,2.79,0,0,1,1.2-.35c1.36,0,3.12.88,3.12,2.07A1.07,1.07,0,0,1,625.12,96.33Zm-16.24,19.56c-1,0-4.72.2-4.72,2.28,0,1,1.32,1.92,3.92,1.92,4.92,0,5.16-2.32,5.16-3.64A13,13,0,0,0,608.88,115.89Z"/><path d="M653.4,122.65c-8.08,0-8.6-4.76-8.6-11.2,0-2.64.44-14.28.44-16.68,0-1.79-.24-2.39-.56-2.75a5.36,5.36,0,0,0-3.36-1.28,6.38,6.38,0,0,1,4-1.6c2.28,0,5.28,1.92,5.28,3.63a29,29,0,0,1-.8,3.21c-1,4.27-1.64,14.15-1.64,17.07,0,3.36,0,5.8,4.52,5.8,5.16,0,14.07-3.72,18-8l.24.24A18.71,18.71,0,0,1,653.4,122.65Z"/><path d="M695.72,98.17a45,45,0,0,1-6.44,2.24c-2.84,8.36-6.12,16.84-7.08,18.84-1.24,2.68-1.8,2.72-2.48,2.72a2.45,2.45,0,0,1-2.16-2.64c0-.92.12-1.16,1.4-3.24a70.9,70.9,0,0,0,7-15,26,26,0,0,1-3.92.44c-3.52,0-4.92-2.32-5.16-4a9.23,9.23,0,0,0,4.6,1.08,21.36,21.36,0,0,0,5.48-.8,21.68,21.68,0,0,0,1-5c0-1.71-1.72-2.47-3.08-2.83a3.36,3.36,0,0,1,2.52-1c1.84,0,5.24,1.44,5.24,3.32,0,.55-.12.76-.72,1.8a16.15,16.15,0,0,0-1.28,2.51,11.22,11.22,0,0,0,2.2-1.08c1.64-1,1.84-1.16,2.52-1.16a2.25,2.25,0,0,1,2.2,2C697.6,97.33,696.44,97.85,695.72,98.17Zm12.75,23a14,14,0,0,1-5.59.88c-9.8,0-11.4-4.36-11.4-6.12a5.55,5.55,0,0,1,1.84-4.08,7.24,7.24,0,0,0-.2,1.64c0,4.36,5.12,4.36,7.08,4.36a19.68,19.68,0,0,0,4.51-.48,6.33,6.33,0,0,1,1.49-.2,3.44,3.44,0,0,1,3.07,2.8A1.28,1.28,0,0,1,708.47,121.17Zm-.36-16.32c-.44,0-2.52-.2-2.91-.2-2,0-5.76,1.68-6.36,2l-.12-.24c1.08-.8,3.76-2.72,3.76-3.36,0-1-3.64-1-4-1a12,12,0,0,0-2.8.24c2.2-2.24,5.88-2.6,7.56-2.6,5,0,6.55,2.6,6.55,3.72S709.11,104.85,708.11,104.85Z"/><path d="M722,122.93a5.9,5.9,0,0,1,0-11.8,5.9,5.9,0,0,1,0,11.8Zm0-10.08A4.14,4.14,0,0,0,718,117a4.06,4.06,0,1,0,4.08-4.16Z"/><path class="cls-1" d="M232.58,0h26.59V5H248.73V32.84H243V5h-10.4Z"/><path class="cls-1" d="M266.85,0h5.25V12.19h.09a7.63,7.63,0,0,1,2.87-2.69,8.54,8.54,0,0,1,4.26-1.08,8.86,8.86,0,0,1,6.16,2c1.51,1.35,2.26,3.38,2.26,6.07V32.84h-5.25v-15a6.5,6.5,0,0,0-1.19-4.07,4.36,4.36,0,0,0-3.45-1.26,5.7,5.7,0,0,0-2.39.48,5.12,5.12,0,0,0-1.8,1.34,6.24,6.24,0,0,0-1.15,2,7.25,7.25,0,0,0-.41,2.43v14h-5.25Z"/><path class="cls-1" d="M317.78,27.55a2.74,2.74,0,0,0,.25,1.38,1.06,1.06,0,0,0,1,.42h.55a3.61,3.61,0,0,0,.74-.09v3.63l-.72.21-.89.2a7.59,7.59,0,0,1-.92.14c-.31,0-.57.05-.79.05a5,5,0,0,1-2.66-.65A3.16,3.16,0,0,1,313,30.59a9.37,9.37,0,0,1-3.85,2.21,15.07,15.07,0,0,1-4.39.69,10.82,10.82,0,0,1-3.08-.44,8,8,0,0,1-2.6-1.29,6,6,0,0,1-1.79-2.16,6.57,6.57,0,0,1-.67-3.06,7,7,0,0,1,.81-3.59,5.91,5.91,0,0,1,2.11-2.16,9.6,9.6,0,0,1,2.94-1.12c1.09-.23,2.19-.41,3.29-.53a23.74,23.74,0,0,1,2.72-.39,12.37,12.37,0,0,0,2.27-.4,3.44,3.44,0,0,0,1.57-.85,2.35,2.35,0,0,0,.57-1.72,2.7,2.7,0,0,0-.48-1.66,3.2,3.2,0,0,0-1.2-1,5.19,5.19,0,0,0-1.58-.46,14.14,14.14,0,0,0-1.66-.11,6.6,6.6,0,0,0-3.63.92,3.57,3.57,0,0,0-1.61,2.85h-5.25a7.93,7.93,0,0,1,1.11-3.82A7.64,7.64,0,0,1,301,10.07a9.94,9.94,0,0,1,3.38-1.28,19.73,19.73,0,0,1,3.86-.37,15.92,15.92,0,0,1,3.45.37A9.62,9.62,0,0,1,314.76,10,6.59,6.59,0,0,1,317,12.12a5.91,5.91,0,0,1,.83,3.2Zm-5.25-6.62a6.31,6.31,0,0,1-2.94.94c-1.17.11-2.33.27-3.5.49a10.8,10.8,0,0,0-1.61.39,5,5,0,0,0-1.38.69,3,3,0,0,0-.94,1.15,3.91,3.91,0,0,0-.35,1.72,2.16,2.16,0,0,0,.51,1.47,3.66,3.66,0,0,0,1.22.95,5.57,5.57,0,0,0,1.56.48,10,10,0,0,0,1.54.14,8.76,8.76,0,0,0,1.89-.23,6.46,6.46,0,0,0,1.91-.78,4.9,4.9,0,0,0,1.49-1.41,3.51,3.51,0,0,0,.6-2.09Z"/><path class="cls-1" d="M328,9.06h5v3.5l.09.09a8.77,8.77,0,0,1,3.13-3.1,8.28,8.28,0,0,1,4.28-1.13,8.86,8.86,0,0,1,6.16,2c1.51,1.35,2.26,3.38,2.26,6.07V32.84h-5.25v-15a6.5,6.5,0,0,0-1.19-4.07A4.36,4.36,0,0,0,339,12.56a5.7,5.7,0,0,0-2.39.48,5.12,5.12,0,0,0-1.8,1.34,6.24,6.24,0,0,0-1.15,2,7.25,7.25,0,0,0-.41,2.43v14H328Z"/><path class="cls-1" d="M359.18,0h5.24V18.68l9.48-9.62h6.43l-9.1,8.74,10,15h-6.39L367.55,21.3l-3.13,3v8.51h-5.24Z"/><path class="cls-1" d="M403.1,9.06h5.75l6.21,17.76h.1l6-17.76h5.48l-9.25,25.07c-.43,1.08-.85,2.1-1.27,3.08a11,11,0,0,1-1.51,2.6,6.66,6.66,0,0,1-2.23,1.8,7.7,7.7,0,0,1-3.41.66,24.24,24.24,0,0,1-3.63-.27V37.58c.43.06.84.13,1.24.21a6.29,6.29,0,0,0,1.24.11,4.12,4.12,0,0,0,1.52-.23,2.47,2.47,0,0,0,1-.66,4.33,4.33,0,0,0,.67-1,10.38,10.38,0,0,0,.5-1.38l.6-1.84Z"/><path class="cls-1" d="M445.1,33.49a13.11,13.11,0,0,1-5.08-.94,10.81,10.81,0,0,1-3.77-2.6,11.23,11.23,0,0,1-2.35-4,15.13,15.13,0,0,1-.8-5.06,15,15,0,0,1,.8-5,11.06,11.06,0,0,1,2.35-4A10.81,10.81,0,0,1,440,9.36a14.22,14.22,0,0,1,10.17,0,10.67,10.67,0,0,1,6.11,6.56,15,15,0,0,1,.81,5A15.13,15.13,0,0,1,456.3,26,11.21,11.21,0,0,1,454,30a11,11,0,0,1-3.77,2.6A13.16,13.16,0,0,1,445.1,33.49Zm0-4.14a6,6,0,0,0,3-.74,6.31,6.31,0,0,0,2.11-1.93A8.24,8.24,0,0,0,451.47,24a12.11,12.11,0,0,0,.39-3.06,12.25,12.25,0,0,0-.39-3,8.05,8.05,0,0,0-1.22-2.69,6.57,6.57,0,0,0-2.11-1.91,6.67,6.67,0,0,0-6.07,0A6.61,6.61,0,0,0,440,15.2a8.26,8.26,0,0,0-1.22,2.69,12.25,12.25,0,0,0-.39,3,12.11,12.11,0,0,0,.39,3.06A8.45,8.45,0,0,0,440,26.68a6.34,6.34,0,0,0,2.12,1.93A6,6,0,0,0,445.1,29.35Z"/><path class="cls-1" d="M487,32.84h-5.15V29.53h-.09a7.25,7.25,0,0,1-2.88,2.88A7.8,7.8,0,0,1,475,33.49c-3.13,0-5.39-.78-6.79-2.32s-2.09-3.89-2.09-7V9.06h5.24V23.64c0,2.09.4,3.56,1.2,4.42a4.33,4.33,0,0,0,3.36,1.29,6.6,6.6,0,0,0,2.76-.51,4.9,4.9,0,0,0,1.79-1.35,5.23,5.23,0,0,0,1-2,10.61,10.61,0,0,0,.3-2.58V9.06H487Z"/></g></g></svg>