<svg xmlns="http://www.w3.org/2000/svg" viewBox="0 0 162.97 39.61"><g id="Layer_2" data-name="Layer 2"><g id="design"><path d="M5.33,32.64c0,1.18,0,1.85-.71,1.85a1.56,1.56,0,0,1-1-.55L0,29.7c1.3,0,2.35,0,5.8-1.93a76.8,76.8,0,0,0,9.49-6.6l.34.3A76.91,76.91,0,0,1,5.33,32.64Zm28.82,3.07c-8.4-5.09-12.35-15.63-13.82-21.17,0,2.64,0,2.94,0,5.58.05,2.19.38,13.7.38,13.74,0,1.55-.08,2.77-1.05,3.69a7.65,7.65,0,0,1-4.83,2.06,6.63,6.63,0,0,0-4-5v-.47c.5.05,4.75.34,4.83.34.25,0,.92,0,1.09-.17s.25-3.69.25-4.37c0-1.26,0-5.46-.16-10.08-.05-.92-.21-7.85-.26-9.37H5.71a23,23,0,0,0-4.53.3L.5,9.28a56.77,56.77,0,0,0,6,.26H16.63c-.12-5.34-.16-6.89-1.21-9.2l5.33,1.84c.42.13.72.38.72.8,0,.68-.8,1.05-1.26,1.26,0,.72,0,3.53,0,5.3H30.71L32.3,7.18c.17-.21.47-.54.68-.54s.58.29.75.46L36.5,9.49c.21.17.42.34.42.63s-.42.42-.63.42h-16A33,33,0,0,0,24,20.37c3.94-4.83,4.36-5.33,5-7.6l3.82,3.11c.13.12.55.5.55.88s-.17.46-1.77.72c-2.39,1.21-5.71,2.89-7.22,3.61a22,22,0,0,0,14.32,10.5V32C37.81,32.14,36.13,32.43,34.15,35.71Zm-23.44-14c-1.26,0-1.59-.67-2.48-2.44a14.74,14.74,0,0,0-3.52-5L4.83,14c5.8.67,7.9,3.49,7.9,5.46A2.09,2.09,0,0,1,10.71,21.72ZM27.43,9c-1.34,0-2-1.22-2.56-2.27-1.18-2.22-1.35-2.47-2.77-3.61l.16-.34c5.59.89,7.06,2.19,7.06,4A2,2,0,0,1,27.43,9Z"/><path d="M80,34.66a8.4,8.4,0,0,0-5,3.57c-5.21-3-8.41-8.36-10.51-14-2.43-6.64-2.89-13-2.89-19.28l-.3,0c0,6-.63,14.32-4.16,21.21A22.85,22.85,0,0,1,42.84,37.55l-.25-.29c5.08-2.9,9.45-9,11.21-12.56,2.86-5.88,3.83-14.37,3.83-19.45a9.27,9.27,0,0,0-.55-4l5.63,1.55c.25.09.92.3.92.68s-.33.88-1.09,1.21c.34,9.2,3.07,17.14,6.89,22.18C72,30.29,75.69,32.43,80,34.36Z"/><path d="M99,10.17H89.84a24.42,24.42,0,0,0-4.54.29l-.67-1.55c2.56.25,5.5.25,6,.25h4.25L96.1,7.73c.38-.46.5-.55.67-.55s.67.38.8.47l1.64,1.42c.25.26.42.38.42.68S99.25,10.17,99,10.17Zm-.3,5.54H91.48a21.25,21.25,0,0,0-4.54.29l-.67-1.55c2.56.21,5.5.25,6,.25h2.65l.88-1.3c.25-.38.38-.55.63-.55s.21,0,.8.47l1.72,1.3c.09.08.42.29.42.63S99,15.71,98.7,15.71Zm-.08,5.34h-7a21.19,21.19,0,0,0-4.54.29l-.72-1.55c2.57.21,5.55.25,6,.25h2.44L96,18.57c.38-.46.42-.55.68-.55s.54.25.75.46l1.43,1.43a1.33,1.33,0,0,1,.38.67C99.25,21,98.87,21.05,98.62,21.05Zm.21,6.05c0,.79-.09,2.85,0,4.2S99,35,99,35.2a2,2,0,0,1-2.27,2.14c-1.47,0-1.47-1-1.34-2.39H90.51a7.81,7.81,0,0,1-.13,2,2.63,2.63,0,0,1-2.26,1.22c-1.35,0-1.35-1-1.35-1.56s.17-2.35.17-2.77c.13-2.52.17-4.37.17-5.42a43.25,43.25,0,0,0-.38-5.84l4,2.4h4.37l1.17-1.31c.17-.17.47-.59.68-.59a2,2,0,0,1,.67.38l1.89,1.39a1.17,1.17,0,0,1,.46.92C99.92,26.38,99.16,26.84,98.83,27.1ZM98.41,4.45h-6a24.42,24.42,0,0,0-4.58.3l-.67-1.56c2.56.26,5.51.26,6,.26h1.26L95.55,2.1c.42-.5.46-.55.67-.55s.3.09.76.47l1.64,1.34A.91.91,0,0,1,99,4C99,4.41,98.66,4.45,98.41,4.45ZM95.43,26H90.51v7.94h4.92Zm26.21.13H111.39c0,2.35.08,5.25.29,9,.09,1.13.09,1.55.09,1.93,0,2.18-2.44,2.18-2.61,2.18-1.26,0-1.55-.63-1.55-2,0-1.6.25-9.29.29-11h-2.27a20.34,20.34,0,0,0-4.53.29l-.68-1.55c2,.17,4,.25,6,.25h1.51V18h-2a20.1,20.1,0,0,0-4.54.3l-.67-1.56c2,.17,4,.25,6,.25h1.22V10.42h-2.14a24,24,0,0,0-4.54.29l-.67-1.55a56.31,56.31,0,0,0,6,.25h3.78A38.65,38.65,0,0,0,113.24,0l4.16,2.69c.25.17.58.38.58.71,0,.55-.12.59-1.55.84-1.09,1.09-3.65,3.7-5.13,5.17h4.92l1.34-1.85c.26-.38.42-.59.68-.59s.33.09.75.42l2.4,2c.12.12.42.33.42.63s-.38.42-.63.42h-9.83V17h2.81L116,14.37c.33-.46.5-.67.75-.67a1.28,1.28,0,0,1,.76.46l2.65,2.73c.08.08.46.5.46.67,0,.42-.42.46-.67.46h-8.57v7.1h4.87l1.64-2.69c.17-.25.42-.63.67-.63a1.29,1.29,0,0,1,.8.51L121.89,25c.25.25.38.42.38.63C122.27,26.09,121.89,26.13,121.64,26.13ZM106.35,9a2.15,2.15,0,0,1-2.1-1.64A17.89,17.89,0,0,0,101,1.64l.29-.25c2.65.88,7.1,2.39,7.1,5.84A1.86,1.86,0,0,1,106.35,9Z"/><path d="M131.5,26.51A24.34,24.34,0,0,1,125.24,36l-.37-.29a29.47,29.47,0,0,0,3.36-12.35l3.65,1.22c.76.25.84.5.84.79C132.72,25.83,132.17,26.25,131.5,26.51Zm9.5-3.15c-1.14,0-1.77-.76-2-2a12,12,0,0,0-.54-2.18c-.38.12-.89.29-2.23.67V32.18c0,1.17.08,3,.08,4.2,0,.67,0,2.31-2.1,2.31-1.34,0-1.55-.8-1.55-1.47s.17-4.2.21-4.92c0-1.13.12-7.68.21-11.67-2.69.63-3.74.79-4.87,1-.09.38-.3,1.22-.93,1.22-.38,0-.5-.29-.71-.88l-1.47-4.12a25.11,25.11,0,0,0,6.68.72,42.46,42.46,0,0,0,5.92-10.8,7,7,0,0,0,.21-2L141.88,8c.46.26.92.76.92,1.14,0,.67-1.22.8-2.06.88a61.12,61.12,0,0,1-7.6,8.53,41.24,41.24,0,0,0,5-.34,8.38,8.38,0,0,0-1.39-2.14l.26-.34c4,1.26,6,3.66,6,5.55A2,2,0,0,1,141,23.36ZM136,4.92a29.76,29.76,0,0,1-4.37,4.87c1.93,1.17,2.27,2.35,2.27,3.48a1.78,1.78,0,0,1-1.81,2c-1.3,0-1.81-1.05-2.56-2.56-1.22-2.48-2.1-3.57-3.11-4.2l.21-.38a16.14,16.14,0,0,1,4.07,1.22c1.93-5,2-6.52,2.19-8.53l3.86,2.27c.76.46,1,.59,1,1C137.68,4.75,137.09,4.79,136,4.92Zm4.28,27c-1.47,0-1.6-.93-1.93-3.28a11.22,11.22,0,0,0-1.39-4.45L137,24c4,1.26,5.29,4.24,5.29,5.75A2.09,2.09,0,0,1,140.24,31.93Zm21.3-25c0,.09.08,19,.12,21,.05,1.84.26,4.78.26,6.67,0,2.23-1.35,3.11-2.36,3.11-1.47,0-1.63-1.3-1.55-3.06H146.63c0,1.09-.09,3.23-2.1,3.23a1.64,1.64,0,0,1-1.69-1.81c0-.67.21-3.57.26-4.15.21-6.05.25-15.34.25-21.85a51.18,51.18,0,0,0-.42-7.77l3.86,1.93H158L158.81,3a1.16,1.16,0,0,1,.92-.59,1.12,1.12,0,0,1,.67.29l2,1.64a1.56,1.56,0,0,1,.59,1C163,5.76,162.8,6.09,161.54,6.93Zm-11-1.68h-3.86V18.4h3.86Zm0,14.16h-3.86V33.65h3.86Zm7.56-14.16h-4.2V18.4h4.2Zm0,14.16h-4.2V33.65h4.2Z"/></g></g></svg>