<svg xmlns="http://www.w3.org/2000/svg" viewBox="0 0 165.07 40.12"><g id="Layer_2" data-name="Layer 2"><g id="design"><path d="M11.8,11.72c.42.29.59.42.59.67s0,.42-1.38,1.18c-.13,3.32.12,17.77.25,21.46,0,.34.12,1.85.12,2.19,0,1.18-1.26,2-2.56,2-.38,0-1.6,0-1.6-1.3,0-.38.17-2.1.21-2.43.3-4.33.3-4.92.3-7.44,0-1.56-.09-9.07-.09-9.7v-1a52.92,52.92,0,0,1-7.3,8.23L0,25.33C4.7,17.56,10.46,6.68,10.54.76l4.75,2.69c.29.16.63.33.63.67s-.21.54-2,1c-.71,1.84-1.47,3.73-2.68,6.21Zm20,3.86,1.6-2.35s.33-.54.63-.54.33.08.8.42l3.36,2.39a.91.91,0,0,1,.42.63c0,.42-.38.46-.63.46H26.51V35.33h4.57L33,32.81c.33-.46.46-.51.63-.51s.54.26.75.47l2.73,2.47c.3.26.42.38.42.64s-.33.46-.63.46H17.56a25.65,25.65,0,0,0-4.54.25l-.63-1.51c2.56.21,5.5.25,6,.25h4.53V16.59H16.34a21,21,0,0,0-4.54.3l-.58-1.56c2.52.21,5.5.25,6,.25h5.71c-.12-11-.12-11.5-1.21-14.28l5.46,1.51c.54.17.75.3.75.64,0,.75-.92,1.21-1.38,1.42V15.58Z"/><path d="M80.9,25.25H74.13a20.54,20.54,0,0,0,.05,2.18c0,.59.25,3,.25,3.53,0,1.34-1.55,2-2.44,2-1.38,0-1.34-.79-1.26-2.52H63.17c.08,4,.08,4.83-.29,5.88-1.05,3-4,3.62-4.92,3.83-.63-2.65-2-4-5.25-5.38l0-.21c1,.08,3.66.38,5.34.38.21,0,1.17,0,1.38-.51s.21-.79.3-4H51.91a24,24,0,0,0-4.53.3l-.68-1.56c2.52.26,5.51.26,6,.26h7.1l.08-4.16H47.33a21.14,21.14,0,0,0-4.53.29L42.08,24c2.57.21,5.55.25,6,.25H59.85V20.12H51.41a21,21,0,0,0-4.54.3l-.71-1.56c2.56.21,5.54.25,6,.25h7.68v-4H52.42c0,.76.12,2.44-2.27,2.44-.8,0-1.39-.42-1.39-1.18,0-.13,0-.42,0-.63.09-1.09.21-2.31.21-3.11a22.89,22.89,0,0,0-.33-5.33l4,1.85h7.14V5.92H48.68a24.13,24.13,0,0,0-4.54.3l-.71-1.56c2.56.26,5.54.26,6,.26H59.77A18.84,18.84,0,0,0,58.93,0l5,1.6c.34.08.76.21.76.54,0,.51-1.05.93-1.6,1.18,0,.25,0,1.39,0,1.6h9.45l1.81-2.23c.16-.25.42-.55.63-.55s.54.3.79.46l3,2.23a.9.9,0,0,1,.42.67c0,.38-.38.42-.68.42H63C63,6.43,63,8.7,63,9.12h7.27l1.09-1c.21-.17.51-.46.63-.46a1.34,1.34,0,0,1,.67.37l2,1.52a.72.72,0,0,1,.38.58c0,.38-.72.8-1.1,1,0,1,.09,3.45,0,4a2.25,2.25,0,0,1-2.26,1.77c-1.22,0-1.18-1-1.18-1.81H62.92c0,.63,0,3.45,0,4h7.35L71.7,17.6c.29-.33.46-.42.63-.42s.21,0,.67.38l2,1.6a.69.69,0,0,1,.33.54c0,.34-.42.63-1.17,1.18,0,.54,0,2.27-.05,3.36h1.18l1.89-2.31c.34-.38.46-.51.67-.51a1.33,1.33,0,0,1,.76.47l2.48,2.26c.29.3.42.38.42.64C81.53,25.21,81.15,25.25,80.9,25.25ZM59.81,10.12H52.42v4h7.43Zm10.67,0H62.92v4h7.56Zm.29,10H63L63,24.24h7.73Zm0,5.13H63l.13,4.16h7.6Z"/><path d="M91.31,10.12c-.09,2.82-.09,6.89-.09,10.3,0,2.6.09,14.07.09,16.42,0,1.47-1.47,2-2.77,2-.89,0-1.31-.34-1.31-1.35,0-.21,0-.88,0-1.13.29-3.7.54-14.66.54-19.41,0-4.58,0-7.6-.63-10.37l4.37,2.52h10.12c0-.55.09-2.06.09-2.65A18.9,18.9,0,0,0,101,.38l5.13,1.34c.29.09.67.21.67.51,0,.5-.55.84-1.3,1.22,0,.5.08,1.09.08,2,0,1.22-.13,3-.21,3.66h10.25l1.51-1.39c.25-.25.63-.59.8-.59s.5.25.8.51l2,1.76c.26.25.47.42.47.71,0,.59-1.18,1.14-1.52,1.31,0,.92-.08,2.56-.08,3.57,0,2.64.25,14.36.25,16.76,0,4.28,0,5.79-5.42,7.31-.46-2-1.09-3.24-5.33-5.17l.08-.34c.72,0,4,.34,4.75.34,2,0,2.14-.08,2.14-1.18,0-1.76,0-9.66,0-11.3s0-10.46,0-11.3H105.21a33.17,33.17,0,0,1-1.3,6.73c6.72,1.68,10.25,6,10.25,8.48a2.06,2.06,0,0,1-2,2.19c-1.39,0-1.77-.76-3.2-3.58a19,19,0,0,0-5.25-6.59,15.91,15.91,0,0,1-2.18,4.41,16.93,16.93,0,0,1-10,6.68l-.13-.25c7-4.88,9.45-8.45,10.21-18.07Z"/><path d="M151,25.63l1.17-1.18c.34-.34.46-.51.67-.51s.42.17.76.42l1.93,1.35a.6.6,0,0,1,.34.54c0,.38-.25.68-1.09,1.52,0,1.43,0,3.27.21,4.95.08.93.29,3.24.29,4.08A2,2,0,0,1,153,39.07c-1.22,0-1.55-1-1.47-2h-13c.13,1.77-.76,2.4-1.93,2.4-.88,0-1.77-.42-1.77-1.18,0-.46.13-2.52.13-2.94.17-3.32.17-5.71.17-6.18,0-1.68,0-2.39-.13-3.94-5.08,3.15-7.69,3.9-8.86,4.24l-.13-.34c8.24-4.87,16.34-13.57,17.1-17.14L147,14.2c.25.17.76.46.76.92a.87.87,0,0,1-.84.8,29,29,0,0,0,18.15,7.69v.33a7.29,7.29,0,0,0-3.78,4c-6.18-2.06-13.53-8.41-15.34-11.77-2.81,3.66-9.07,7.77-9.32,7.94l2.81,1.52Zm6.8-19.45,1.35-1.35a1.08,1.08,0,0,1,.58-.38,1.69,1.69,0,0,1,1,.63l3,2.82a.69.69,0,0,1,.17.5,1.2,1.2,0,0,1-.84,1.18,18,18,0,0,1-2.22.12,19.36,19.36,0,0,1-4.29,1.89l-.29-.21A18.31,18.31,0,0,0,158,7.18H133.14c.08,2.4-1.39,5.8-3.82,5.8a1.94,1.94,0,0,1-2.06-1.76c0-1.18,1.09-2,2.18-2.78a8.16,8.16,0,0,0,3.28-4.15h.21c0,1.13.08,1.42.13,1.89h10.67A23.27,23.27,0,0,0,143,.92l4.79,1.26a.64.64,0,0,1,.5.59.63.63,0,0,1-.25.55c-.21.17-.71.55-1,.8V6.18Zm-15.71,4.53c.21.17.38.34.38.55,0,.46-.38.67-2,.71-4,4.41-7.18,5.93-11.8,7.73l-.13-.33c3.66-2.44,7.82-7.9,8.87-9.33A6.69,6.69,0,0,0,138.35,8Zm-3.61,15.92V36h13.1V26.63ZM149.27,9.75c3.91,1.13,4.37,1.26,5.5,1.84.76.38,4.16,2.19,4.16,4.58A1.68,1.68,0,0,1,157,18.06c-1.13,0-1.38-.42-2.77-2.48a26.61,26.61,0,0,0-5.08-5.67Z"/></g></g></svg>