<svg xmlns="http://www.w3.org/2000/svg" viewBox="0 0 207.99 39.57"><g id="Layer_2" data-name="Layer 2"><g id="design"><path d="M34.53,18.69c-3.74-1.76-10.25-5.42-15.29-15.08-2.94,5.51-12,13.61-19,16.47L0,19.83A60.23,60.23,0,0,0,14.79,3.4,8.92,8.92,0,0,0,16.26,0l4.53,1.55c.55.17.68.51.68.68,0,.5-1,.75-1.52.92,2.69,4.16,9.33,10,18.78,11.47v.25A7.84,7.84,0,0,0,34.53,18.69ZM35,24.2H18.36a64.81,64.81,0,0,1-6.93,9c10.33-.8,11.46-.89,15.71-1.47a41.41,41.41,0,0,0-4.46-5.63l.21-.26c2.44,1,10.76,5.21,10.76,10.38,0,.67-.46,2.35-2.1,2.35-1.35,0-2.19-1.09-2.73-2.85a16.45,16.45,0,0,0-1.18-3.07C23.19,34,9.33,37.18,6.8,37.6c-.16.42-.29.88-.71.88s-.71-.63-.8-.88L3.44,33a19.45,19.45,0,0,0,4.12.46c.46,0,2-.13,2.69-.17A44.21,44.21,0,0,0,13.4,24.2h-6a22.57,22.57,0,0,0-4.53.29l-.72-1.55a57.52,57.52,0,0,0,6,.25h20l2.31-2.56c.42-.51.51-.55.72-.55s.25,0,.75.46l3.28,2.61c.13.12.42.33.42.63S35.16,24.2,35,24.2Zm-9.24-7.31H14.49a24.29,24.29,0,0,0-4.53.29l-.68-1.55c2.52.25,5.51.25,6,.25h4.54l2.05-2.35c.42-.51.47-.55.68-.55s.63.34.75.46l2.65,2.35c.25.26.42.38.42.68S26,16.89,25.71,16.89Z"/><path d="M40.78,25.62c4.58-3.78,11-11.55,12.69-15.54H47.21a21,21,0,0,0-4.54.3L42,8.82c2,.17,4,.25,6,.25h1.43A22.33,22.33,0,0,0,48.13.5l5.21,1.56c.21,0,.72.21.72.59s-.55.75-1.31,1.26c0,.59-.08,1.34-.08,2.06,0,.42,0,2.6,0,3.1h.88l1.14-1.21a.93.93,0,0,1,.67-.38,1.16,1.16,0,0,1,.71.38L58.51,10a.6.6,0,0,1,.21.46c0,.63-.88.8-1.89,1a57.71,57.71,0,0,1-4,5.12c2.27.72,6.42,3.07,6.42,5.76A1.82,1.82,0,0,1,57.5,24.2c-1.26,0-1.68-1-2.31-2.44a25,25,0,0,0-2.65-4.54c0,1.64-.08,10.21-.08,10.34,0,1.34.25,8.1.25,8.65,0,1.85-1.93,2.19-2.43,2.19a1.45,1.45,0,0,1-1.52-1.48c0-.12.25-3.9.25-4.24.09-2.1.09-3.11.17-12.39A40.67,40.67,0,0,1,41,25.88Zm22.56-9.57a24.42,24.42,0,0,0-4.54.29l-.67-1.55c2,.17,4,.25,6,.25h1.84c0-.88-.08-4.87-.08-5.67,0-5.17,0-6.14-1.43-8.87l5,1.22c.72.17,1.18.51,1.18.88s-.67.93-1.18,1.22c-.08,1.1-.08,2.1-.08,11.22h3.49l1.84-2.31c.38-.46.42-.55.68-.55s.67.38.75.46L78.8,15c.25.25.42.37.42.67s-.38.42-.63.42h-9.2c0,6.26,0,12.94.08,18.69h3.7l2.31-2.35c.42-.46.5-.55.67-.55s.59.3.8.51l2.52,2.31a1,1,0,0,1,.38.67c0,.38-.34.42-.63.42H61.11a24.29,24.29,0,0,0-4.53.29l-.68-1.55a56.31,56.31,0,0,0,6,.25H66c0-7.81,0-9.37,0-18.69Z"/><path d="M103,34.36c3.06-1.17,13.19-5.16,13.19-15.46,0-5.84-3.79-11.25-12.1-11.25a15.55,15.55,0,0,0-2.65.21c2.82,1.21,3.61,3,3.61,3.61s-3.11,7.43-5.42,11.76c-4.36,8.23-5.79,8.53-7,8.53-.92,0-1.39-.63-2.69-2.48a7.06,7.06,0,0,0-1.68-1.76,6.92,6.92,0,0,1-1.89-4.88c0-9,7.82-16.38,18-16.38,8.61,0,15.67,5,15.67,13.27,0,8.74-7.56,14.29-17.09,15.13ZM89.46,21.89c0,2.68,1.26,6.3,2.82,6.3,1.34,0,3-3.11,3.86-4.75,1.34-2.56,5.08-10.17,5.08-12.69a3.52,3.52,0,0,0-1.43-2.64C94.08,9.41,89.46,16.47,89.46,21.89Z"/><path d="M130.66,12.69c-.92,2.43-2.48,6.76-4.28,8.69l-.34-.12c1.93-4.12,2.77-13.45,2.77-15.46,0-.42,0-2.19-.08-2.57l4.2,1.56c.46.17.63.29.63.59s-.42.63-.92.84c-.26,1-.63,2.48-1.64,5.46h3.4c0-6.72,0-8.7-.63-11.26l4.66,1.39c.47.12.68.29.68.54a1.33,1.33,0,0,1-.42.72c-.17.16-.8.63-.93.79-.08,1.22-.12,6.68-.12,7.82h.92L139.82,10c.25-.34.42-.5.63-.5s.38.16.76.46l2,1.59c.21.17.42.34.42.63s-.33.47-.63.47h-5.42v8.06c.76-.33,4.12-1.68,4.79-2l.17.29a47.12,47.12,0,0,1-5,3.61c0,2.27.09,12.23.09,14.29,0,.75,0,1.34-.76,1.72a5.46,5.46,0,0,1-2,.5,1,1,0,0,1-1.14-1.09c0-.33.21-2.14.21-2.48.09-2,.21-8.78.25-10.71-1.59,1-4.16,2.52-5.37,3.07-.55,1.43-.8,1.68-1.18,1.68a1,1,0,0,1-.71-.59l-2.19-4.2c1.35.17,2.9-.21,9.5-2.77.08-6.56.12-7.27.12-9.41ZM155,7.14l1.51-2c.21-.3.5-.55.67-.55s.38.17.76.46l2.6,2a.91.91,0,0,1,.42.63c0,.42-.38.46-.63.46h-8.27v6.64h6.09l1.68-2.19c.25-.33.46-.5.63-.5s.42.08.8.42l2.64,2.18a.91.91,0,0,1,.42.63c0,.42-.33.46-.63.46H144.53a21,21,0,0,0-4.54.3l-.67-1.56c2.52.26,5.5.26,6,.26h3.4c0-1.14,0-5.72,0-6.64h-2.48a25.28,25.28,0,0,0-4.54.29L141,6.89c2.56.25,5.5.25,6,.25h1.68A25.12,25.12,0,0,0,148,.67l5.08,1.47c.21,0,.47.21.47.46,0,.42-1.05,1-1.47,1.22V7.14Zm3.36,15.17,1.34-2c.17-.25.38-.5.63-.5s.38.12.76.42l2.6,2c.13.13.42.38.42.63s-.29.46-.63.46h-7.64c0,1.89,0,11.22,0,11.93-.17,1.94-1.31,3.16-5.13,4.33A7.23,7.23,0,0,0,149,36.46a34,34,0,0,0-3-1.89l0-.25c.8.08,2.65.29,4.2.29,2.06,0,2.14-.12,2.23-1.89,0-1.26.08-3.9,0-9.41h-6.64a21,21,0,0,0-4.54.3l-.67-1.56c2.52.21,5.5.26,6,.26h5.88a15.68,15.68,0,0,0-.76-5.63l4.29.92c.75.17,1.09.55,1.09.84,0,.51-.63.84-1.09,1.09a22.67,22.67,0,0,0-.17,2.78Zm-15.34,3.15c2,.21,6.22,1.38,6.22,4.16a2.09,2.09,0,0,1-1.93,2.18c-1.09,0-1.22-.34-2.48-3.11a12,12,0,0,0-2-3Z"/><path d="M183.63,12.56c0-8.91,0-9.91-.63-12.18l4.41,1.26c.12,0,.46.17.46.46a.73.73,0,0,1-.25.5,7.53,7.53,0,0,1-1,.76v9.2h2.27c0-3,.08-4,.08-5A18.29,18.29,0,0,0,188.5,3l3.95,1.14a.66.66,0,0,1,.5.55c0,.29-.42.58-1.13,1,0,1.21,0,6.59,0,7.68a1.79,1.79,0,0,1-2.06,1.81c-1,0-1-1-1-1.68h-7.47c0,.92.12,1.68-.21,2.1a2.39,2.39,0,0,1-1.81.67c-.88,0-1.09-.46-1.09-1.22,0-.54.17-3,.17-3.48a4.74,4.74,0,0,1-.72.21c-.71,1-1.34,2-2.43,3.48l1.13.67c.21.13.42.26.42.51,0,.55-1,1.09-1.39,1.3,0,3,.09,17.18,0,19.16-.08,1.3-1.13,1.84-2.39,1.84s-1.22-.83-1.22-1.8.21-4.75.25-5.55c.13-3.23.26-6.68.26-10.88V19.07a21.3,21.3,0,0,1-5,4.2l-.21-.17c1.76-2.52,7.52-10.83,8-15.12l3.4,2.27a52.76,52.76,0,0,0-.25-6.3c-.29.21-.42.21-1.55.5-3.2,3.49-5.59,6-8.87,7.52l-.21-.25c2.23-2.48,6.47-8.49,6.55-11.13L178,2.94a1.52,1.52,0,0,0,.33.21l3.49.88c.21,0,.63.17.63.55s-.25.75-1.13,1.26c0,2,0,4.79,0,6.72Zm2.52,6.55v6.22h.71l1-1.51c.17-.25.38-.51.63-.51a2.06,2.06,0,0,1,.8.42l2.35,1.6a.69.69,0,0,1,.38.59c0,.38-.34.42-.63.42h-5.29v4.87c1-.25,5.75-1.22,6.68-1.43L193,30c-1.39.71-9.37,4.7-12.27,5.67-.08.75-.42,1.21-.8,1.21a.74.74,0,0,1-.71-.33l-2.48-4.33c.88,0,1.34.09,2,.09a21.38,21.38,0,0,0,4.41-.55V26.34a26.09,26.09,0,0,0-5,.29l-.67-1.55a53.26,53.26,0,0,0,5.71.25V19.11a26.38,26.38,0,0,0-5.08.3l-.67-1.56a56.58,56.58,0,0,0,6,.26h2.4l1.3-1.56c.21-.25.38-.5.63-.5s.46.21.76.46L190.39,18a57,57,0,0,0,5.38-12.39,12.63,12.63,0,0,0,.92-5L201.44,3a.81.81,0,0,1,.42.55.75.75,0,0,1-.3.5c-.21.13-.92.43-1.26.59a39.73,39.73,0,0,1-5.37,8.78h5.37l1.6-2.14c.17-.25.42-.55.63-.55s.38.13.8.47L206,13.4c.29.25.42.34.42.63s-.38.42-.63.42H200l2.52,1c.33.12.71.46.71.8s-.33.71-1.17,1.17a35.37,35.37,0,0,1-3.87,11.51c2.35,2.9,6.05,4.87,9.83,6.05v.42c-.76.13-2.31.38-4.49,2.94a19.54,19.54,0,0,1-7.06-7,21.47,21.47,0,0,1-12.31,7.47L184,38.6c2.19-1.3,7.65-4.62,11-10.2a35.13,35.13,0,0,1-2.18-12.35c-.3.38-1.73,2-2,2.35a.62.62,0,0,1,.08.29c0,.38-.33.42-.63.42Zm8-4.66c-.42.51-.46.59-.59.76.21,1.8.88,6.93,2.73,10.71a25.45,25.45,0,0,0,1.89-11.47Z"/></g></g></svg>