<svg xmlns="http://www.w3.org/2000/svg" viewBox="0 0 164.98 40.12"><defs><style>.cls-1{fill:#fff;}</style></defs><g id="Layer_2" data-name="Layer 2"><g id="design"><path class="cls-1" d="M38.81,25.25H32.05c0,1.51,0,1.55,0,2.18s.26,3,.26,3.53c0,1.34-1.56,2-2.44,2-1.39,0-1.35-.79-1.26-2.52H21.09c.08,4,.08,4.83-.3,5.88a6.21,6.21,0,0,1-4.91,3.83c-.63-2.65-2-4-5.25-5.38l0-.21c1,.08,3.65.38,5.33.38.21,0,1.18,0,1.39-.51s.21-.79.29-4H9.83a24.13,24.13,0,0,0-4.54.3l-.67-1.56c2.52.26,5.5.26,6,.26h7.1l.09-4.16H5.25a21.25,21.25,0,0,0-4.54.29L0,24c2.56.21,5.54.25,6,.25H17.77V20.12H9.33a21,21,0,0,0-4.54.3l-.72-1.56c2.57.21,5.55.25,6,.25h7.69v-4H10.33c.05.76.13,2.44-2.26,2.44-.8,0-1.39-.42-1.39-1.18,0-.13,0-.42,0-.63.08-1.09.21-2.31.21-3.11a22.62,22.62,0,0,0-.34-5.33l4,1.85h7.15V5.92H6.59a24,24,0,0,0-4.53.3L1.34,4.66c2.57.26,5.55.26,6,.26H17.68A18.84,18.84,0,0,0,16.84,0l5.05,1.6c.33.08.75.21.75.54,0,.51-1.05.93-1.6,1.18,0,.25,0,1.39,0,1.6h9.46l1.8-2.23c.17-.25.42-.55.63-.55s.55.3.8.46l3,2.23a.88.88,0,0,1,.42.67c0,.38-.38.42-.67.42H21c0,.51-.08,2.78-.08,3.2h7.26l1.1-1c.21-.17.5-.46.63-.46a1.34,1.34,0,0,1,.67.37l2,1.52a.72.72,0,0,1,.38.58c0,.38-.71.8-1.09,1,0,1,.08,3.45,0,4a2.27,2.27,0,0,1-2.27,1.77c-1.22,0-1.18-1-1.18-1.81H20.83c0,.63.05,3.45.05,4h7.35l1.39-1.51c.29-.33.46-.42.63-.42s.21,0,.67.38l2,1.6a.7.7,0,0,1,.34.54c0,.34-.42.63-1.18,1.18,0,.54,0,2.27,0,3.36h1.18l1.89-2.31c.33-.38.46-.51.67-.51a1.37,1.37,0,0,1,.76.47L39,24.15c.3.3.42.38.42.64C39.44,25.21,39.07,25.25,38.81,25.25ZM17.73,10.12h-7.4v4h7.44Zm10.67,0H20.83v4H28.4Zm.29,10H20.88L21,24.24h7.73Zm0,5.13H21l.13,4.16h7.6Z"/><path class="cls-1" d="M80.14,10.59H66.83L69.09,12c.26.13.55.42.55.67,0,.59-1.09.55-1.47.55a24,24,0,0,1-4.07,3.32h6.8l1.81-2.06c.29-.33.46-.5.67-.5a1.11,1.11,0,0,1,.76.42l2.22,2.05c.25.26.42.38.42.68s-.33.42-.63.42H63c0,.38,0,2.73,0,3.27h5.17l1.6-1.68c.33-.33.54-.58.71-.58s.63.33.88.5l2.44,1.64a.92.92,0,0,1,.46.67c0,.38-.34.46-.63.46H63v3.7h9.83l2.31-2.4c.47-.46.55-.54.72-.54s.67.38.75.46l2.61,2.4c.21.21.42.41.42.67s-.38.42-.63.42H63.8a25.74,25.74,0,0,0,16.26,7.64v.17a8.54,8.54,0,0,0-4,4c-7.73-2.69-11.64-9.37-13-11.8H63c.13,8.23.21,9.16.3,10.54,0,.17,0,.46,0,.71,0,1.48-1.76,1.77-2.39,1.77-1.48,0-1.48-.8-1.48-1.43s.26-9.16.3-10.67c-3.49,5-10.29,9.58-16.64,10.67l0-.25c6.3-3.24,9.54-6.64,13.15-11.34H48.89a24.42,24.42,0,0,0-4.54.29l-.67-1.55c2.52.25,5.5.25,6,.25H59.77V21.8H52.29a21,21,0,0,0-4.54.3L47,20.54c2.56.21,5.54.25,6,.25h6.72V17.52H50.86a24.29,24.29,0,0,0-4.53.29l-.72-1.55c2.56.25,5.55.25,6,.25h4.24c-.42-.21-.67-.46-1.13-1.76a12.82,12.82,0,0,0-2.06-4.16H48a21.14,21.14,0,0,0-4.53.29l-.67-1.55c2.52.21,5.5.25,6,.25h8A39.69,39.69,0,0,0,56,.88l4.71,1.43c.25.08.58.21.58.59,0,.55-.92.88-1.38,1a55.76,55.76,0,0,0-.13,5.67h2.65c0-6.05-.38-7.27-.84-8.66l4.74,1.26c.42.13.76.21.76.63s-.8.93-1.43,1.18c0,.55-.17,5.38-.17,5.59H67A20,20,0,0,0,69.3,1.64L73.38,3.7c.33.17.63.33.63.63,0,.54-.88.71-1.26.8C71,7,68.34,9.41,68.17,9.58h5.88l2.14-2.1c.47-.46.55-.59.68-.59a1.78,1.78,0,0,1,.88.5l2.52,2c.25.21.5.5.5.71C80.77,10.54,80.39,10.59,80.14,10.59ZM52.88,9.07c-1.18,0-1.6-1-2.48-3A8.34,8.34,0,0,0,48,2.86l.16-.3c2.48.51,6.43,1.73,6.43,4.62A1.77,1.77,0,0,1,52.88,9.07Zm1,1.52c3.48,1.26,4.7,2.56,4.7,4.24a1.74,1.74,0,0,1-1.09,1.68H63a14.72,14.72,0,0,0,2.11-5.92Z"/><path class="cls-1" d="M91.22,10.12c-.08,2.82-.08,6.89-.08,10.3,0,2.6.08,14.07.08,16.42,0,1.47-1.47,2-2.77,2-.88,0-1.3-.34-1.3-1.35,0-.21,0-.88,0-1.13.3-3.7.55-14.66.55-19.41,0-4.58,0-7.6-.63-10.37l4.37,2.52H101.6c0-.55.08-2.06.08-2.65a19.19,19.19,0,0,0-.79-6.09L106,1.72c.3.09.67.21.67.51,0,.5-.54.84-1.3,1.22,0,.5.09,1.09.09,2a36.25,36.25,0,0,1-.22,3.66H115.5L117,7.73c.25-.25.63-.59.8-.59s.5.25.79.51l2,1.76c.25.25.46.42.46.71,0,.59-1.17,1.14-1.51,1.31,0,.92-.08,2.56-.08,3.57,0,2.64.25,14.36.25,16.76,0,4.28,0,5.79-5.42,7.31-.46-2-1.09-3.24-5.34-5.17l.09-.34c.71,0,4,.34,4.75.34,2,0,2.14-.08,2.14-1.18,0-1.76,0-9.66,0-11.3s0-10.46,0-11.3H105.13a33.88,33.88,0,0,1-1.3,6.73c6.72,1.68,10.25,6,10.25,8.48a2.07,2.07,0,0,1-2,2.19c-1.38,0-1.76-.76-3.19-3.58a19,19,0,0,0-5.25-6.59,16.28,16.28,0,0,1-2.19,4.41,16.88,16.88,0,0,1-10,6.68l-.12-.25c7-4.88,9.45-8.45,10.21-18.07Z"/><path class="cls-1" d="M151,25.63l1.18-1.18c.33-.34.46-.51.67-.51s.42.17.76.42l1.93,1.35a.62.62,0,0,1,.34.54c0,.38-.26.68-1.1,1.52,0,1.43,0,3.27.21,4.95.09.93.3,3.24.3,4.08a2,2,0,0,1-2.31,2.27c-1.22,0-1.56-1-1.47-2h-13c.12,1.77-.76,2.4-1.94,2.4-.88,0-1.76-.42-1.76-1.18,0-.46.13-2.52.13-2.94.16-3.32.16-5.71.16-6.18,0-1.68,0-2.39-.12-3.94-5.09,3.15-7.69,3.9-8.87,4.24l-.12-.34c8.23-4.87,16.34-13.57,17.09-17.14l3.87,2.23c.25.17.76.46.76.92a.87.87,0,0,1-.85.8A29,29,0,0,0,165,23.61v.33a7.33,7.33,0,0,0-3.78,4c-6.17-2.06-13.52-8.41-15.33-11.77-2.82,3.66-9.07,7.77-9.33,7.94l2.82,1.52Zm6.81-19.45,1.34-1.35a1.06,1.06,0,0,1,.59-.38c.34,0,.67.3,1,.63l3,2.82a.69.69,0,0,1,.17.5A1.2,1.2,0,0,1,163,9.58a18.17,18.17,0,0,1-2.23.12,19.29,19.29,0,0,1-4.28,1.89l-.3-.21a17.44,17.44,0,0,0,1.68-4.2H133.06c.08,2.4-1.39,5.8-3.83,5.8a1.93,1.93,0,0,1-2-1.76c0-1.18,1.09-2,2.18-2.78a8.28,8.28,0,0,0,3.28-4.15h.21c0,1.13.08,1.42.12,1.89h10.67a23.34,23.34,0,0,0-.75-5.26l4.79,1.26a.64.64,0,0,1,.5.59.63.63,0,0,1-.25.55c-.21.17-.72.55-1,.8V6.18Zm-15.71,4.53c.21.17.37.34.37.55,0,.46-.37.67-2,.71-4,4.41-7.19,5.93-11.81,7.73l-.12-.33c3.65-2.44,7.81-7.9,8.86-9.33A6.51,6.51,0,0,0,138.27,8Zm-3.62,15.92V36h13.11V26.63ZM149.19,9.75c3.9,1.13,4.37,1.26,5.5,1.84.76.38,4.16,2.19,4.16,4.58A1.69,1.69,0,0,1,157,18.06c-1.13,0-1.39-.42-2.77-2.48a26.65,26.65,0,0,0-5.09-5.67Z"/></g></g></svg>