<svg xmlns="http://www.w3.org/2000/svg" viewBox="0 0 235.47 37.07"><title>Asset 5</title><g id="Layer_2" data-name="Layer 2"><g id="Layer_1-2" data-name="Layer 1"><path d="M24.4,32.75c-.64,0-6.44,0-8.16-7.11h.24c1.12,1.8,2.68,3.92,6,3.92a5.08,5.08,0,0,0,5.36-5.28c0-3.88-3.08-5.08-5.52-5.08a17.61,17.61,0,0,0-9.36,3c.08,1.36.48,7.79.48,8.12,0,3.15-1.56,5-2.6,5S9,33.63,8.68,32.91a12.84,12.84,0,0,0-3-3.79c-.32.48-.88,1.16-1.16,1.56C4,31.4,3.72,31.87,3,31.87c-1.72,0-3-2-3-3.63a4.93,4.93,0,0,1,1.08-2.92A10.88,10.88,0,0,0,1.6,26.8a1,1,0,0,0,.72.36c.28,0,.56-.2,1.08-.56C5.64,25,8.52,23,10.16,22V15a11.15,11.15,0,0,1-3.36.64,4.28,4.28,0,0,1-4.44-4,4.52,4.52,0,0,0,3.16,1.12,13.58,13.58,0,0,0,4.68-.92,56,56,0,0,0-.28-6.68C9.56,4.08,8.6,3.76,7,3.16a3.89,3.89,0,0,1,3.12-1.32c1.16,0,4.64,1.08,4.64,2.64a4.22,4.22,0,0,1-.32,1.32,12.33,12.33,0,0,0-1.24,4.8,11.39,11.39,0,0,0,1.8-1c1.16-.8,1.48-1,2.2-1,1,0,2.28.68,2.28,1.64,0,1.12-1,1.6-3.08,2.52a35.33,35.33,0,0,1-3.48,1.36c-.16,2.64-.12,4.56-.08,6.32a25,25,0,0,1,10.64-3c4.2,0,8.55,2,8.55,7.28a7.89,7.89,0,0,1-7.63,8M10.2,24.16a27.63,27.63,0,0,0-4.32,4.68,24.83,24.83,0,0,0,3.84,1.48c.32,0,.52-.08.52-1.25,0-.71,0-4.11,0-4.91m21.2-9.48c-.61,0-.81-.12-2-.76a5.06,5.06,0,0,0-1.71-.24,14.44,14.44,0,0,0-3,.4v-.2c3-2.08,3.16-2.16,3.16-2.76,0-.76-1.64-2.52-5.12-2.92a7.27,7.27,0,0,1,4-1c3.88,0,6.47,2.6,6.47,5.36,0,2-1.52,2.12-1.71,2.12"/><path d="M50.84,2.64l1-1.52c.2-.28.36-.52.72-.52a.93.93,0,0,1,.6.28l2.56,2.28c.2.2.4.4.4.6,0,.4-.16.52-1.28,1.36,0,1.52.12,8.16.12,9.52,0,1.56-1.6,2.16-2.64,2.16-1.24,0-1.24-1-1.28-1.8H45.24v5.44c0,2.24.08,12.11.08,14.11,0,.88,0,1.2-.28,1.48a3,3,0,0,1-2.28,1,1.43,1.43,0,0,1-1.64-1.44c0-.56.12-3,.12-3.52.08-2.32.12-5.91.12-12.91,0-14.4,0-16-.52-18.48l5,1.92Zm-5.6,5.48h5.84V3.6H45.24Zm0,5.92h5.84v-5H45.24ZM59.4,20l1-1.32c.2-.28.44-.64.72-.64a1,1,0,0,1,.64.32l2.56,1.88c.24.16.48.36.48.6,0,.44-.88,1.08-1.28,1.2,0,1.16.08,6.12,0,7.11a2.12,2.12,0,0,1-2.4,2c-1.48,0-1.44-.72-1.4-2.08H53.4a16.73,16.73,0,0,1-.08,2c-.24.64-1.52,1.16-2.4,1.16-1.32,0-1.32-1-1.32-1.44,0-1,.12-5.23.12-6.07a46.94,46.94,0,0,0-.28-6.44L54.08,20Zm-6,8.16h6.32v-7.2H53.4ZM68.32,2.64,69.64,1c.2-.24.4-.52.72-.52a1,1,0,0,1,.6.28l2.8,2.32a1,1,0,0,1,.36.6c0,.48-.16.64-1.44,1.72,0,6.12,0,10,0,13.2,0,2,.16,12.75.16,12.79,0,2.32,0,4.56-5.48,5.56-.28-1.76-.52-3.08-3.68-5l.08-.32c1.08.08,2.56.16,3.68.16s1.36-.32,1.36-1.12V15h-6.4c.08,1.36-1.36,1.8-2.52,1.8-1.32,0-1.32-1-1.32-1.56,0-1.16.12-6.24.12-7.28,0-4.88,0-5.36-.44-7.12l4.64,1.8ZM62.44,8.12h6.4V3.6h-6.4Zm0,5.92h6.4v-5h-6.4Z"/><path d="M92.08,26.16a4.57,4.57,0,0,0-.24,1.12c0,.43.56,2.31.56,2.67a1.79,1.79,0,0,1-1.92,1.84c-2,0-7.6-2.72-8-13.95,0-.92-.12-5-.2-5.8a11.91,11.91,0,0,0-1.8-5.64c2.84.24,6.48,2,6.48,5.2a6.67,6.67,0,0,1-.2,1.24,30.07,30.07,0,0,0-1,6.64c0,3.76,1.8,6.31,2.56,6.31.52,0,1.52-1.27,2.08-2,1.36-1.8,4.36-6.08,5.12-7.28l.28.12c-.32.76-3.64,9.4-3.68,9.56m18.6-.84c-.68,0-.88-.2-2.52-2-1-1.16-4.28-1.72-5.16-1.88v-.28c.32,0,4-.44,4.48-.6a1,1,0,0,0,.64-1.08A14.1,14.1,0,0,0,106.2,14a18.5,18.5,0,0,0-4.36-4.76C107.08,9.16,113,15.4,113,21.16c0,2.36-1.23,4.16-2.31,4.16"/><path d="M151.71,18.32a28.65,28.65,0,0,1-14-14.6C134.08,9.64,126.48,17,118,19.64l-.12-.24C128.68,12,133.24,2.76,133.72,0l5,1.8c.36.12.72.24.72.56s-.48.68-1,1c3.44,4.76,10.56,9.08,17.47,10.2v.36a7.67,7.67,0,0,0-4.12,4.44M148,24.56c0,1-.08,3.32,0,5s.12,4.4.12,4.6a1.72,1.72,0,0,1-.52,1.52,4.13,4.13,0,0,1-2.64.88c-1.48,0-1.48-.52-1.36-2.36h-13.4c0,.92.12,2.6-2.88,2.6-1.68,0-1.68-1-1.68-1.48s.16-3,.2-3.52c.08-1.28.12-3.08.12-5.08a40.36,40.36,0,0,0-.4-6.79l5.08,2.24h12.6l1.32-1.64c.2-.28.52-.56.72-.56a1.45,1.45,0,0,1,.8.4l2.72,2.08c.36.28.6.48.6.76s-.28.64-1.4,1.4m-3-7.84H132.84a20.1,20.1,0,0,0-4.32.28l-.64-1.48c2.44.2,5.24.24,5.68.24h5.84l1.68-2.36c.2-.24.36-.48.6-.48s.52.24.76.44l2.68,2.32a.89.89,0,0,1,.4.6c0,.4-.36.44-.6.44m-1.32,6.36H130.16V33.19H143.6Z"/><path d="M175.08,31.67v-.31c9.2-1.64,14-6.76,14-12.12a5.62,5.62,0,0,0-5.6-5.92c-3.52,0-7.92,2-11.92,5.56,0,.52,0,1.44,0,2.76s.52,7.72.52,8c0,2.39-.84,5-2.36,5-1.24,0-1.32-1-1.4-2.16a15.1,15.1,0,0,0-1.56-5.15l.12-.08a3.9,3.9,0,0,0,2,1.12c.32,0,.4-.24.4-.68,0-1-.16-5.44-.16-6.36a43.71,43.71,0,0,0-4.68,7.12c-1.12,2.08-1.44,2.16-1.92,2.16-1.24,0-1.4-1.76-1.4-2.4,0-1.4.8-2.28,2-3.56a43.61,43.61,0,0,0,6.2-9.28c0-.32.12-1.72.12-2-.92,0-4.32,2.88-5.2,2.88-1.44,0-2.84-1.92-2.84-4a2.83,2.83,0,0,1,.56-1.92,2.76,2.76,0,0,0,2.72,1.92c1.56,0,4.16-1.2,4.92-1.52,0-.8.28-4.2.28-4.92,0-1.32-.24-2.48-3.12-3.16a4.14,4.14,0,0,1,2.72-1c2.44,0,4.92,1.68,4.92,2.84a5.21,5.21,0,0,1-.56,1.72,18.54,18.54,0,0,0-1.28,3.2c.92.28,2.88,1,2.88,1.72s-1.12,2-1.68,2.64a28.28,28.28,0,0,0-2.12,2.88c0,.12,0,.64,0,.76,5.72-4.8,9.92-6,13.44-6,3.76,0,8.39,2.44,8.39,8.32,0,8.76-9.31,12.31-18.31,11.91"/><path d="M233.07,14.6c-.64,0-3.43-.2-4-.2-.88,0-2.28,0-4.24.2-.4,7-1.24,12-4.52,12-1,0-1.32-.51-1.6-1.27-.8-2-.84-2-3.84-4.32l.08-.28a14.75,14.75,0,0,0,4.44,1c.6,0,1.08,0,1.52-1.68a32.88,32.88,0,0,0,.6-5,60.64,60.64,0,0,0-9.32,2.16c0,.68-.16,2.12-.16,4.92,0,6,.24,8,5.32,8a37.12,37.12,0,0,0,8.8-.83,5.71,5.71,0,0,1,1-.12A3.08,3.08,0,0,1,230.19,32a1.35,1.35,0,0,1-1,1.32c-1.35.52-5,.56-5.91.56-2,0-8.08-.2-11-1.92s-3.56-4.67-3.4-13.71a27.74,27.74,0,0,0-5,2.2c-1,.6-1.28.76-1.76.76-1.44,0-3.72-2.2-3.72-4.64a4.31,4.31,0,0,1,.48-1.92c.84,1.4,1.64,2.16,3.24,2.16.88,0,1.8-.2,6.84-1.32,0-6-.28-6.32-3.2-7.12a3.84,3.84,0,0,1,3-1.28c1.56,0,4.48,1.24,4.48,2.8,0,.16-.28,1.28-.32,1.64s-.24,1.16-.44,3.16c3.64-.8,4.36-1,9.2-2,.08-1.56.2-6.68-.64-7.92-.24-.4-1-1.16-3.24-1.48a4.39,4.39,0,0,1,3.44-1.44c1.8,0,4.56,1.24,4.56,3.16a18,18,0,0,1-.32,2.12c-.08.48-.24,1.8-.4,4.8a32,32,0,0,0,3.55-.92,5.18,5.18,0,0,1,2.52-.68c1.2,0,4.4.64,4.4,2.52,0,1.72-1.56,1.72-2.4,1.72"/></g></g></svg>